<?xml version="1.0" encoding="UTF-8" standalone="no"?>
<!-- Created with Inkscape (http://www.inkscape.org/) -->

<svg
   xmlns:dc="http://purl.org/dc/elements/1.1/"
   xmlns:cc="http://creativecommons.org/ns#"
   xmlns:rdf="http://www.w3.org/1999/02/22-rdf-syntax-ns#"
   xmlns:svg="http://www.w3.org/2000/svg"
   xmlns="http://www.w3.org/2000/svg"
   xmlns:xlink="http://www.w3.org/1999/xlink"
   xmlns:sodipodi="http://sodipodi.sourceforge.net/DTD/sodipodi-0.dtd"
   xmlns:inkscape="http://www.inkscape.org/namespaces/inkscape"
   width="297mm"
   height="210mm"
   viewBox="0 0 1052.3622 744.09448"
   id="svg2"
   version="1.1"
   inkscape:version="0.91 r13725"
   sodipodi:docname="outlander-sylwetka.svg">
  <defs
     id="defs4">
    <inkscape:path-effect
       effect="skeletal"
       id="path-effect7959"
       is_visible="true"
       pattern="M 0,5 C 0,2.24 2.24,0 5,0 7.76,0 10,2.24 10,5 10,7.76 7.76,10 5,10 2.24,10 0,7.76 0,5 Z"
       copytype="single_stretched"
       prop_scale="1"
       scale_y_rel="false"
       spacing="0"
       normal_offset="0"
       tang_offset="0"
       prop_units="false"
       vertical_pattern="false"
       fuse_tolerance="0" />
    <inkscape:path-effect
       effect="powerstroke"
       id="path-effect7951"
       is_visible="true"
       offset_points="0.033112582,-7.3744878"
       sort_points="true"
       interpolator_type="Linear"
       interpolator_beta="0.2"
       start_linecap_type="zerowidth"
       linejoin_type="round"
       miter_limit="4"
       end_linecap_type="zerowidth"
       cusp_linecap_type="round" />
    <inkscape:path-effect
       effect="skeletal"
       id="path-effect7947"
       is_visible="true"
       pattern="M 0,5 C 0,2.24 2.24,0 5,0 7.76,0 10,2.24 10,5 10,7.76 7.76,10 5,10 2.24,10 0,7.76 0,5 Z"
       copytype="single_stretched"
       prop_scale="1"
       scale_y_rel="false"
       spacing="0"
       normal_offset="0"
       tang_offset="0"
       prop_units="false"
       vertical_pattern="false"
       fuse_tolerance="0" />
    <inkscape:path-effect
       effect="powerstroke"
       id="path-effect7943"
       is_visible="true"
       offset_points="0.078048791,5.7812373"
       sort_points="true"
       interpolator_type="Linear"
       interpolator_beta="0.2"
       start_linecap_type="zerowidth"
       linejoin_type="round"
       miter_limit="4"
       end_linecap_type="zerowidth"
       cusp_linecap_type="round" />
    <inkscape:path-effect
       effect="powerstroke"
       id="path-effect7939"
       is_visible="true"
       offset_points="0.034178285,-4.4718713"
       sort_points="true"
       interpolator_type="Linear"
       interpolator_beta="0.2"
       start_linecap_type="zerowidth"
       linejoin_type="round"
       miter_limit="4"
       end_linecap_type="zerowidth"
       cusp_linecap_type="round" />
    <inkscape:path-effect
       effect="powerstroke"
       id="path-effect7935"
       is_visible="true"
       offset_points="0,0.5"
       sort_points="true"
       interpolator_type="CubicBezierJohan"
       interpolator_beta="0.2"
       start_linecap_type="zerowidth"
       linejoin_type="round"
       miter_limit="4"
       end_linecap_type="zerowidth"
       cusp_linecap_type="round" />
    <inkscape:path-effect
       effect="powerstroke"
       id="path-effect7931"
       is_visible="true"
       offset_points="0,0.84450112"
       sort_points="true"
       interpolator_type="CubicBezierJohan"
       interpolator_beta="0.2"
       start_linecap_type="zerowidth"
       linejoin_type="round"
       miter_limit="4"
       end_linecap_type="zerowidth"
       cusp_linecap_type="round" />
    <inkscape:path-effect
       effect="skeletal"
       id="path-effect7927"
       is_visible="true"
       pattern="M 0,5 C 0,2.24 2.24,0 5,0 7.76,0 10,2.24 10,5 10,7.76 7.76,10 5,10 2.24,10 0,7.76 0,5 Z"
       copytype="single_stretched"
       prop_scale="1"
       scale_y_rel="false"
       spacing="0"
       normal_offset="0"
       tang_offset="0"
       prop_units="false"
       vertical_pattern="false"
       fuse_tolerance="0" />
    <inkscape:path-effect
       effect="skeletal"
       id="path-effect7923"
       is_visible="true"
       pattern="M 0,5 C 0,2.24 2.24,0 5,0 7.76,0 10,2.24 10,5 10,7.76 7.76,10 5,10 2.24,10 0,7.76 0,5 Z"
       copytype="single_stretched"
       prop_scale="1"
       scale_y_rel="false"
       spacing="0"
       normal_offset="0"
       tang_offset="0"
       prop_units="false"
       vertical_pattern="false"
       fuse_tolerance="0" />
    <inkscape:path-effect
       effect="skeletal"
       id="path-effect7919"
       is_visible="true"
       pattern="M 0,5 C 0,2.24 2.24,0 5,0 7.76,0 10,2.24 10,5 10,7.76 7.76,10 5,10 2.24,10 0,7.76 0,5 Z"
       copytype="single_stretched"
       prop_scale="1"
       scale_y_rel="false"
       spacing="0"
       normal_offset="0"
       tang_offset="0"
       prop_units="false"
       vertical_pattern="false"
       fuse_tolerance="0" />
    <inkscape:path-effect
       effect="skeletal"
       id="path-effect7915"
       is_visible="true"
       pattern="M 0,5 C 0,2.24 2.24,0 5,0 7.76,0 10,2.24 10,5 10,7.76 7.76,10 5,10 2.24,10 0,7.76 0,5 Z"
       copytype="single_stretched"
       prop_scale="1"
       scale_y_rel="false"
       spacing="0"
       normal_offset="0"
       tang_offset="0"
       prop_units="false"
       vertical_pattern="false"
       fuse_tolerance="0" />
    <inkscape:path-effect
       effect="skeletal"
       id="path-effect7911"
       is_visible="true"
       pattern="M 0,5 C 0,2.24 2.24,0 5,0 7.76,0 10,2.24 10,5 10,7.76 7.76,10 5,10 2.24,10 0,7.76 0,5 Z"
       copytype="single_stretched"
       prop_scale="1"
       scale_y_rel="false"
       spacing="0"
       normal_offset="0"
       tang_offset="0"
       prop_units="false"
       vertical_pattern="false"
       fuse_tolerance="0" />
    <inkscape:path-effect
       effect="skeletal"
       id="path-effect7907"
       is_visible="true"
       pattern="M 0,5 C 0,2.24 2.24,0 5,0 7.76,0 10,2.24 10,5 10,7.76 7.76,10 5,10 2.24,10 0,7.76 0,5 Z"
       copytype="single_stretched"
       prop_scale="1"
       scale_y_rel="false"
       spacing="0"
       normal_offset="0"
       tang_offset="0"
       prop_units="false"
       vertical_pattern="false"
       fuse_tolerance="0" />
    <inkscape:path-effect
       effect="skeletal"
       id="path-effect7903"
       is_visible="true"
       pattern="M 0,5 C 0,2.24 2.24,0 5,0 7.76,0 10,2.24 10,5 10,7.76 7.76,10 5,10 2.24,10 0,7.76 0,5 Z"
       copytype="single_stretched"
       prop_scale="1"
       scale_y_rel="false"
       spacing="0"
       normal_offset="0"
       tang_offset="0"
       prop_units="false"
       vertical_pattern="false"
       fuse_tolerance="0" />
    <inkscape:path-effect
       effect="powerstroke"
       id="path-effect7899"
       is_visible="true"
       offset_points="0,0.5"
       sort_points="true"
       interpolator_type="CubicBezierJohan"
       interpolator_beta="0.2"
       start_linecap_type="zerowidth"
       linejoin_type="round"
       miter_limit="4"
       end_linecap_type="zerowidth"
       cusp_linecap_type="round" />
    <inkscape:path-effect
       effect="powerstroke"
       id="path-effect7895"
       is_visible="true"
       offset_points="0,0.5"
       sort_points="true"
       interpolator_type="CubicBezierJohan"
       interpolator_beta="0.2"
       start_linecap_type="zerowidth"
       linejoin_type="round"
       miter_limit="4"
       end_linecap_type="zerowidth"
       cusp_linecap_type="round" />
    <inkscape:path-effect
       effect="skeletal"
       id="path-effect7891"
       is_visible="true"
       pattern="M 0,5 C 0,2.24 2.24,0 5,0 7.76,0 10,2.24 10,5 10,7.76 7.76,10 5,10 2.24,10 0,7.76 0,5 Z"
       copytype="single_stretched"
       prop_scale="1"
       scale_y_rel="false"
       spacing="0"
       normal_offset="0"
       tang_offset="0"
       prop_units="false"
       vertical_pattern="false"
       fuse_tolerance="0" />
    <inkscape:path-effect
       effect="skeletal"
       id="path-effect7887"
       is_visible="true"
       pattern="M 0,5 C 0,2.24 2.24,0 5,0 7.76,0 10,2.24 10,5 10,7.76 7.76,10 5,10 2.24,10 0,7.76 0,5 Z"
       copytype="single_stretched"
       prop_scale="1"
       scale_y_rel="false"
       spacing="0"
       normal_offset="0"
       tang_offset="0"
       prop_units="false"
       vertical_pattern="false"
       fuse_tolerance="0" />
    <inkscape:path-effect
       effect="skeletal"
       id="path-effect7883"
       is_visible="true"
       pattern="M 0,5 C 0,2.24 2.24,0 5,0 7.76,0 10,2.24 10,5 10,7.76 7.76,10 5,10 2.24,10 0,7.76 0,5 Z"
       copytype="single_stretched"
       prop_scale="1"
       scale_y_rel="false"
       spacing="0"
       normal_offset="0"
       tang_offset="0"
       prop_units="false"
       vertical_pattern="false"
       fuse_tolerance="0" />
    <inkscape:path-effect
       effect="skeletal"
       id="path-effect7879"
       is_visible="true"
       pattern="M 0,5 C 0,2.24 2.24,0 5,0 7.76,0 10,2.24 10,5 10,7.76 7.76,10 5,10 2.24,10 0,7.76 0,5 Z"
       copytype="single_stretched"
       prop_scale="1"
       scale_y_rel="false"
       spacing="0"
       normal_offset="0"
       tang_offset="0"
       prop_units="false"
       vertical_pattern="false"
       fuse_tolerance="0" />
    <inkscape:path-effect
       effect="skeletal"
       id="path-effect7875"
       is_visible="true"
       pattern="M 0,5 C 0,2.24 2.24,0 5,0 7.76,0 10,2.24 10,5 10,7.76 7.76,10 5,10 2.24,10 0,7.76 0,5 Z"
       copytype="single_stretched"
       prop_scale="1"
       scale_y_rel="false"
       spacing="0"
       normal_offset="0"
       tang_offset="0"
       prop_units="false"
       vertical_pattern="false"
       fuse_tolerance="0" />
    <inkscape:path-effect
       effect="skeletal"
       id="path-effect7871"
       is_visible="true"
       pattern="M 0,5 C 0,2.24 2.24,0 5,0 7.76,0 10,2.24 10,5 10,7.76 7.76,10 5,10 2.24,10 0,7.76 0,5 Z"
       copytype="single_stretched"
       prop_scale="1"
       scale_y_rel="false"
       spacing="0"
       normal_offset="0"
       tang_offset="0"
       prop_units="false"
       vertical_pattern="false"
       fuse_tolerance="0" />
    <inkscape:path-effect
       effect="skeletal"
       id="path-effect7867"
       is_visible="true"
       pattern="M 0,5 C 0,2.24 2.24,0 5,0 7.76,0 10,2.24 10,5 10,7.76 7.76,10 5,10 2.24,10 0,7.76 0,5 Z"
       copytype="single_stretched"
       prop_scale="1"
       scale_y_rel="false"
       spacing="0"
       normal_offset="0"
       tang_offset="0"
       prop_units="false"
       vertical_pattern="false"
       fuse_tolerance="0" />
    <inkscape:path-effect
       effect="powerstroke"
       id="path-effect7863"
       is_visible="true"
       offset_points="0,0.84450112"
       sort_points="true"
       interpolator_type="CubicBezierJohan"
       interpolator_beta="0.2"
       start_linecap_type="zerowidth"
       linejoin_type="round"
       miter_limit="4"
       end_linecap_type="zerowidth"
       cusp_linecap_type="round" />
    <inkscape:path-effect
       effect="skeletal"
       id="path-effect7859"
       is_visible="true"
       pattern="M 0,5 C 0,2.24 2.24,0 5,0 7.76,0 10,2.24 10,5 10,7.76 7.76,10 5,10 2.24,10 0,7.76 0,5 Z"
       copytype="single_stretched"
       prop_scale="1"
       scale_y_rel="false"
       spacing="0"
       normal_offset="0"
       tang_offset="0"
       prop_units="false"
       vertical_pattern="false"
       fuse_tolerance="0" />
    <inkscape:path-effect
       effect="powerstroke"
       id="path-effect7855"
       is_visible="true"
       offset_points="0.057810802,3.9480426"
       sort_points="true"
       interpolator_type="Linear"
       interpolator_beta="0.2"
       start_linecap_type="zerowidth"
       linejoin_type="round"
       miter_limit="4"
       end_linecap_type="zerowidth"
       cusp_linecap_type="round" />
    <inkscape:path-effect
       effect="powerstroke"
       id="path-effect7851"
       is_visible="true"
       offset_points="0.078181204,-5.1150986"
       sort_points="true"
       interpolator_type="Linear"
       interpolator_beta="0.2"
       start_linecap_type="zerowidth"
       linejoin_type="round"
       miter_limit="4"
       end_linecap_type="zerowidth"
       cusp_linecap_type="round" />
    <inkscape:path-effect
       effect="powerstroke"
       id="path-effect7847"
       is_visible="true"
       offset_points="0.053037639,2.629598"
       sort_points="true"
       interpolator_type="Linear"
       interpolator_beta="0.2"
       start_linecap_type="zerowidth"
       linejoin_type="round"
       miter_limit="4"
       end_linecap_type="zerowidth"
       cusp_linecap_type="round" />
    <inkscape:path-effect
       effect="skeletal"
       id="path-effect7843"
       is_visible="true"
       pattern="M 0,5 C 0,2.24 2.24,0 5,0 7.76,0 10,2.24 10,5 10,7.76 7.76,10 5,10 2.24,10 0,7.76 0,5 Z"
       copytype="single_stretched"
       prop_scale="1"
       scale_y_rel="false"
       spacing="0"
       normal_offset="0"
       tang_offset="0"
       prop_units="false"
       vertical_pattern="false"
       fuse_tolerance="0" />
    <inkscape:path-effect
       effect="skeletal"
       id="path-effect7839"
       is_visible="true"
       pattern="M 0,5 C 0,2.24 2.24,0 5,0 7.76,0 10,2.24 10,5 10,7.76 7.76,10 5,10 2.24,10 0,7.76 0,5 Z"
       copytype="single_stretched"
       prop_scale="1"
       scale_y_rel="false"
       spacing="0"
       normal_offset="0"
       tang_offset="0"
       prop_units="false"
       vertical_pattern="false"
       fuse_tolerance="0" />
    <inkscape:path-effect
       effect="powerstroke"
       id="path-effect7835"
       is_visible="true"
       offset_points="0,0.5"
       sort_points="true"
       interpolator_type="CubicBezierJohan"
       interpolator_beta="0.2"
       start_linecap_type="zerowidth"
       linejoin_type="round"
       miter_limit="4"
       end_linecap_type="zerowidth"
       cusp_linecap_type="round" />
    <inkscape:path-effect
       effect="powerstroke"
       id="path-effect7831"
       is_visible="true"
       offset_points="0.021627284,1.6316046"
       sort_points="true"
       interpolator_type="Linear"
       interpolator_beta="0.2"
       start_linecap_type="zerowidth"
       linejoin_type="round"
       miter_limit="4"
       end_linecap_type="zerowidth"
       cusp_linecap_type="round" />
    <inkscape:path-effect
       effect="powerstroke"
       id="path-effect7827"
       is_visible="true"
       offset_points="0,0.5"
       sort_points="true"
       interpolator_type="CubicBezierJohan"
       interpolator_beta="0.2"
       start_linecap_type="zerowidth"
       linejoin_type="round"
       miter_limit="4"
       end_linecap_type="zerowidth"
       cusp_linecap_type="round" />
    <inkscape:path-effect
       effect="powerstroke"
       id="path-effect7819"
       is_visible="true"
       offset_points="0,0.84450112"
       sort_points="true"
       interpolator_type="CubicBezierJohan"
       interpolator_beta="0.2"
       start_linecap_type="zerowidth"
       linejoin_type="round"
       miter_limit="4"
       end_linecap_type="zerowidth"
       cusp_linecap_type="round" />
    <inkscape:path-effect
       effect="powerstroke"
       id="path-effect7815"
       is_visible="true"
       offset_points="0,0.84450112"
       sort_points="true"
       interpolator_type="CubicBezierJohan"
       interpolator_beta="0.2"
       start_linecap_type="zerowidth"
       linejoin_type="round"
       miter_limit="4"
       end_linecap_type="zerowidth"
       cusp_linecap_type="round" />
    <inkscape:path-effect
       effect="powerstroke"
       id="path-effect7811"
       is_visible="true"
       offset_points="0,0.5"
       sort_points="true"
       interpolator_type="CubicBezierJohan"
       interpolator_beta="0.2"
       start_linecap_type="zerowidth"
       linejoin_type="round"
       miter_limit="4"
       end_linecap_type="zerowidth"
       cusp_linecap_type="round" />
    <inkscape:path-effect
       effect="powerstroke"
       id="path-effect7807"
       is_visible="true"
       offset_points="0,0.5"
       sort_points="true"
       interpolator_type="CubicBezierJohan"
       interpolator_beta="0.2"
       start_linecap_type="zerowidth"
       linejoin_type="round"
       miter_limit="4"
       end_linecap_type="zerowidth"
       cusp_linecap_type="round" />
    <inkscape:path-effect
       effect="skeletal"
       id="path-effect7803"
       is_visible="true"
       pattern="M 0,5 C 0,2.24 2.24,0 5,0 7.76,0 10,2.24 10,5 10,7.76 7.76,10 5,10 2.24,10 0,7.76 0,5 Z"
       copytype="single_stretched"
       prop_scale="1"
       scale_y_rel="false"
       spacing="0"
       normal_offset="0"
       tang_offset="0"
       prop_units="false"
       vertical_pattern="false"
       fuse_tolerance="0" />
    <inkscape:path-effect
       effect="skeletal"
       id="path-effect7799"
       is_visible="true"
       pattern="M 0,5 C 0,2.24 2.24,0 5,0 7.76,0 10,2.24 10,5 10,7.76 7.76,10 5,10 2.24,10 0,7.76 0,5 Z"
       copytype="single_stretched"
       prop_scale="1"
       scale_y_rel="false"
       spacing="0"
       normal_offset="0"
       tang_offset="0"
       prop_units="false"
       vertical_pattern="false"
       fuse_tolerance="0" />
    <inkscape:path-effect
       effect="powerstroke"
       id="path-effect7795"
       is_visible="true"
       offset_points="0,0.5"
       sort_points="true"
       interpolator_type="CubicBezierJohan"
       interpolator_beta="0.2"
       start_linecap_type="zerowidth"
       linejoin_type="round"
       miter_limit="4"
       end_linecap_type="zerowidth"
       cusp_linecap_type="round" />
    <inkscape:path-effect
       effect="skeletal"
       id="path-effect7791"
       is_visible="true"
       pattern="M 0,5 C 0,2.24 2.24,0 5,0 7.76,0 10,2.24 10,5 10,7.76 7.76,10 5,10 2.24,10 0,7.76 0,5 Z"
       copytype="single_stretched"
       prop_scale="1"
       scale_y_rel="false"
       spacing="0"
       normal_offset="0"
       tang_offset="0"
       prop_units="false"
       vertical_pattern="false"
       fuse_tolerance="0" />
    <inkscape:path-effect
       effect="skeletal"
       id="path-effect7786"
       is_visible="true"
       pattern="m 0,313.26772 c 0,-2.76 2.24,-5 5,-5 2.76,0 5,2.24 5,5 0,2.76 -2.24,5 -5,5 -2.76,0 -5,-2.24 -5,-5 z"
       copytype="single_stretched"
       prop_scale="1"
       scale_y_rel="false"
       spacing="0"
       normal_offset="0"
       tang_offset="0"
       prop_units="false"
       vertical_pattern="false"
       fuse_tolerance="0" />
    <filter
       id="filter7230">
      <feGaussianBlur
         inkscape:collect="always"
         stdDeviation="1.0119594"
         id="feGaussianBlur7232" />
    </filter>
    <linearGradient
       id="linearGradient10553">
      <stop
         offset="0"
         style="stop-color:#8bb75f"
         id="stop10555" />
      <stop
         offset="1"
         style="stop-color:#ffffff;stop-opacity:0"
         id="stop10557" />
    </linearGradient>
    <linearGradient
       id="linearGradient3667">
      <stop
         offset="0"
         style="stop-color:rgb(219, 0, 7)"
         id="stop3675" />
      <stop
         offset="1"
         style="stop-color:rgb(255, 132, 66)"
         id="stop3681" />
    </linearGradient>
    <linearGradient
       id="linearGradient6657">
      <stop
         offset="0"
         style="stop-color:#000000"
         id="stop6659" />
      <stop
         offset="1"
         style="stop-color:#4e4b32;stop-opacity:0"
         id="stop6661" />
    </linearGradient>
    <linearGradient
       id="linearGradient4177">
      <stop
         offset="0"
         style="stop-color:#b4c0ac"
         id="stop4179" />
      <stop
         offset=".41037"
         style="stop-color:#9aa79a"
         id="stop6322" />
      <stop
         offset="1"
         style="stop-color:#4e5b5b"
         id="stop4181" />
    </linearGradient>
    <linearGradient
       id="linearGradient6650">
      <stop
         offset="0"
         style="stop-color:#000000"
         id="stop6652" />
      <stop
         offset="1"
         style="stop-color:#858055;stop-opacity:0"
         id="stop6654" />
    </linearGradient>
  </defs>
  <sodipodi:namedview
     id="base"
     pagecolor="#ffffff"
     bordercolor="#666666"
     borderopacity="1.0"
     inkscape:pageopacity="0.0"
     inkscape:pageshadow="2"
     inkscape:zoom="1.1046984"
     inkscape:cx="526.1811"
     inkscape:cy="372.04724"
     inkscape:document-units="mm"
     inkscape:current-layer="layer2"
     showgrid="false"
     inkscape:window-width="1854"
     inkscape:window-height="1019"
     inkscape:window-x="0"
     inkscape:window-y="0"
     inkscape:window-maximized="1" />
  <metadata
     id="metadata7">
    <rdf:RDF>
      <cc:Work
         rdf:about="">
        <dc:format>image/svg+xml</dc:format>
        <dc:type
           rdf:resource="http://purl.org/dc/dcmitype/StillImage" />
        <dc:title></dc:title>
      </cc:Work>
    </rdf:RDF>
  </metadata>
  <g
     inkscape:label="Layer 1"
     inkscape:groupmode="layer"
     id="layer1"
     transform="translate(0,-308.26772)"
     sodipodi:insensitive="true"
     style="display:none">
    <image
       sodipodi:absref="/home/terminus/Obrazy/grafika/Sylwetki/MOII2.png"
       xlink:href="Obrazy/grafika/Sylwetki/MOII2.png"
       width="640"
       height="400"
       preserveAspectRatio="none"
       id="image4144"
       x="206.18111"
       y="480.31497" />
  </g>
  <g
     inkscape:groupmode="layer"
     id="layer2"
     inkscape:label="Sylwetka">
    <g
       id="g4570">
      <path
         sodipodi:nodetypes="cssssccacssscacccaccc"
         inkscape:connector-curvature="0"
         inkscape:original-d="m 706.96121,483.42185 c -6.05296,-62.86627 -24.1904,-116.60752 -74.73133,-48.22404 -16.86701,22.82161 -23.9955,64.36757 -39.75207,94.79343 -8.84397,17.07767 -11.3468,48.98444 -30.57852,48.92563 L 61.940453,577.38793 C 26.083459,577.27832 23.717302,444.37137 23.717302,444.37137 l 15.289253,-19.87604 c 0,0 -4.597413,-48.42444 9.173563,-65.74382 C 84.524828,313.04175 211.7752,296.06554 211.7752,296.06554 273.5622,208.7222 314.56085,167.32117 389.13064,153.8754 c 92.38751,-16.65851 255.26465,-12.30834 383.76045,-1.52892 54.93561,4.60851 121.08526,16.19844 160.53725,39.75209 65.11499,38.87497 90.20666,250.74387 90.20666,250.74387 0,0 9.0063,5.95092 10.7025,10.70248 1.7218,4.82372 -1.529,15.28927 -1.529,15.28927 l -7.6446,29.04959 c -13.7964,17.00041 -11.797,43.47831 -16.8182,65.74382 -1.8689,-49.65216 12.1015,-120.00787 -30.5785,-125.37194 -44.11176,-5.54401 -62.68599,117.72731 -62.68599,117.72731 l 0,36.69423 -184.87209,4.49898"
         inkscape:path-effect="#path-effect7791"
         id="path7789"
         d="m 706.96121,483.42185 c -0.24149,0.0233 -0.73218,-3.78994 -1.83395,-11.16447 -0.96257,-6.44276 -2.90419,-19.24177 -6.47626,-32.19902 -1.44452,-5.23667 -3.32994,-11.19631 -5.99407,-16.95904 -1.8973,-4.08552 -4.27677,-8.40862 -7.56743,-11.92517 -2.43445,-2.58358 -5.52116,-4.86943 -9.02004,-5.67478 -3.44782,-0.86753 -7.31899,-0.25301 -11.00516,1.24412 -5.04789,2.06844 -9.54035,5.58731 -14.0137,9.76829 -6.12488,5.76004 -11.5638,12.43618 -17.06643,19.98257 -4.277,5.85925 -7.61011,12.51256 -10.72132,19.79387 -3.29672,7.73669 -6.06602,15.68258 -8.96282,24.26709 -5.18375,15.39883 -10.88896,34.15768 -19.34137,50.72068 -2.28565,4.44347 -3.87259,9.31591 -5.55681,14.47295 -1.69137,5.22066 -3.3951,10.81937 -5.58384,16.25023 -1.8484,4.68206 -4.24427,9.62339 -8.07623,13.77779 -1.67152,1.79767 -3.70356,3.38203 -6.0776,4.51969 0,0 -7e-5,4e-5 -7e-5,4e-5 -2.44991,1.14406 -5.1148,1.7057 -7.77424,1.70133 -133.6188,0.17567 -304.33768,0.13351 -499.963112,-0.131 0,0 -1.35e-4,0 -1.35e-4,0 -2.908451,-0.0162 -5.747347,-0.70065 -8.308703,-1.96293 0,0 -1.19e-4,-6e-5 -1.19e-4,-6e-5 -2.690347,-1.35033 -4.973422,-3.14998 -6.861879,-5.1448 0,0 -8.1e-5,-9e-5 -8.1e-5,-9e-5 -4.64529,-4.91862 -7.726147,-10.72349 -10.087434,-16.43482 -3.027129,-7.16487 -5.211575,-14.56469 -7.014848,-21.98691 -1.996039,-8.18434 -3.537202,-16.46037 -4.81974,-24.79152 5e-6,0 -1.6e-5,-10e-5 -1.6e-5,-10e-5 -2.34096,-15.19681 -3.849399,-30.56323 -4.843653,-46.09949 l 0,0 c -0.323017,-5.03841 -0.589424,-10.10029 -0.784351,-15.18058 l 0,0 c -0.05443,-1.41852 -0.103387,-2.84199 -0.143492,-4.27049 l -1e-6,-10e-6 c -0.01057,-0.37637 -0.02055,-0.75489 -0.02947,-1.13558 -4.8e-5,1.5e-4 4e-6,-4e-5 4e-6,-4e-5 0.159927,-0.59025 0.319927,-1.18163 0.480065,-1.77414 l 0,0 c 9.5e-5,0.005 -0.0016,-0.077 -0.0015,-0.0724 0,0 -3.6e-4,-0.0184 -3.6e-4,-0.0184 5.0685,-6.55102 10.159066,-13.12308 15.271095,-19.72205 -0.04315,0.12237 -0.08539,0.25443 -0.127607,0.38657 -0.122464,0.37139 -0.24481,0.74348 -0.367065,1.11626 -0.01343,-0.14782 -0.02615,-0.29326 -0.03838,-0.4363 -0.04667,-0.5459 -0.0891,-1.0877 -0.128786,-1.62534 -0.144383,-1.95575 -0.257435,-3.90869 -0.346929,-5.85835 -0.289006,-6.27421 -0.342284,-12.59782 -0.09501,-18.94264 5e-6,0 4e-6,-1.1e-4 4e-6,-1.1e-4 0.281606,-7.4441 0.975721,-15.04323 2.58884,-22.59797 0.745858,-3.50297 1.732797,-7.05266 3.118901,-10.54743 1.195617,-3.05877 2.805278,-6.14873 5.037785,-9.00241 0,0 8.6e-5,-8e-5 8.6e-5,-8e-5 5.29735,-6.63408 11.707522,-12.10664 18.464541,-16.78718 8e-6,10e-6 9.5e-5,-7e-5 9.5e-5,-7e-5 7.640345,-5.31516 15.782243,-9.76307 24.115746,-13.68632 17.718983,-8.34675 36.334523,-14.53988 55.295803,-19.73861 15.79272,-4.33763 31.85044,-7.95012 48.116,-10.96072 4.98905,-0.92376 10.00659,-1.79152 15.05053,-2.58089 1.38064,-0.21607 2.76759,-0.42687 4.16138,-0.62843 l 0,0 c 0.36408,-0.0526 0.73084,-0.10496 1.10037,-0.15638 l -10e-6,10e-6 c -0.46617,0.32697 -0.93106,0.65387 -1.39465,0.98077 l -1e-5,1e-5 c -0.004,5.5e-4 0.0727,-0.009 0.0683,-0.009 0,0 0.0174,-0.002 0.0174,-0.002 13.1454,-19.04628 26.84911,-38.22527 41.83567,-56.49377 12.469,-14.93112 25.97107,-29.44153 41.1943,-42.26124 13.31669,-11.21047 28.06602,-21.00032 44.08614,-28.48707 15.83724,-7.3805 32.68063,-12.43634 49.86158,-15.66018 0.61519,-0.11543 1.23061,-0.22848 1.84621,-0.33917 27.13596,-4.88629 54.51426,-7.28369 81.46527,-8.84541 32.84715,-1.90937 65.56572,-2.43043 97.7872,-2.24949 70.30687,0.39328 139.23119,4.03308 205.79836,9.6811 29.5269,2.50071 58.47771,6.53712 86.71675,12.96369 26.51713,5.99103 52.57941,13.7791 75.78958,27.62051 4.6716,2.80905 8.85267,6.21334 12.59542,9.90579 4.20729,4.14363 7.93809,8.65063 11.30742,13.3064 7.86393,10.87013 14.07207,22.65267 19.40351,34.46403 6.14691,13.59225 11.23989,27.50081 15.70446,41.33371 4.71807,14.61158 8.77234,29.29328 12.36894,43.84467 6.4465,26.07883 11.5347,52.04629 15.6593,77.45397 1.3417,8.26414 2.5805,16.47808 3.6959,24.66518 0.128,2.61566 0.2571,5.22649 0.3871,7.83258 1.3366,0.76132 2.6716,1.52272 4.0049,2.28427 2.5435,1.93148 5.4987,4.70138 7.2583,8.95547 1.3389,4.4743 0.767,8.53847 0.01,11.65927 -0.4877,2.00187 -0.9745,3.99975 -1.4603,5.99362 -2.7312,10.04422 -5.4324,19.97919 -8.1065,29.81616 -3.2487,4.04245 -5.6669,8.8394 -7.4978,13.85682 -1.8026,5.06052 -2.9315,10.44772 -3.8324,15.89986 -3.2871,11.77627 -5.0107,22.71525 -8.9949,34.71741 -1.7543,-13.64984 -2.4062,-27.41061 -3.1746,-40.37048 0.413,-13.51737 0.7671,-26.35657 -0.2782,-39.11222 l 0,0 c -0.4695,-5.71066 -1.2015,-11.26778 -2.5058,-16.61156 l 0,0 c -1.1644,-4.72712 -2.70565,-9.22535 -5.0024,-13.18148 0,0 -5e-5,-5e-5 -5e-5,-5e-5 -2.07579,-3.57245 -4.75052,-6.71939 -7.97734,-8.91932 -3.46298,-2.42249 -7.69605,-3.80638 -12.00708,-4.38573 -4.50535,-0.63055 -9.27791,0.60936 -13.27669,2.96577 l 0,0 c -4.75916,2.78155 -8.70174,7.08721 -12.16478,11.68645 l 0,0 c -4.19587,5.62512 -7.59353,11.86702 -10.57759,18.17358 l 0,0 c -3.34932,7.09343 -6.16211,14.38712 -8.63964,21.61658 l 0,0 c -4.77254,13.93064 -8.40378,27.9487 -11.32725,41.38964 l 0,0 c -1.01038,4.64799 -1.93423,9.23797 -2.76436,13.78845 l 0,0 c -0.23643,1.29612 -0.46446,2.58398 -0.68079,3.86768 l 0,0 -10e-6,6e-5 0,0 c -0.0573,0.34008 -0.11359,0.6784 -0.16823,1.01509 0,-1e-5 0,-1e-5 0,-1e-5 -0.009,0.0196 -0.0178,0.0384 -0.0263,0.0565 l 0,0 c 8.3e-4,-0.004 -0.0139,0.074 -0.0131,0.0697 0,0 -0.003,0.0177 -0.003,0.0177 -0.51205,13.11703 -0.97205,25.68217 -1.38384,37.71483 -118.90874,3.2818 -186.09766,4.20637 -186.12019,3.28065 -0.0225,-0.926 67.05288,-3.26828 183.62395,-5.71727 -0.41175,-11.44489 -0.87175,-23.33541 -1.38289,-35.67969 9.1e-4,-0.006 0.003,-0.0227 0.003,-0.0227 3.4e-4,-0.003 0.007,-0.0625 0.008,-0.0656 l 0,0 c 0.0187,-0.1589 0.0374,-0.31708 0.0561,-0.47454 0,0 0,-1e-5 0,-1e-5 0.053,-0.35101 0.10728,-0.70067 0.1621,-1.04904 l 0,0 10e-6,-6e-5 0,0 c 0.20694,-1.31509 0.42492,-2.62923 0.65057,-3.94623 l 0,0 c 0.79226,-4.62413 1.67894,-9.28415 2.65256,-13.99735 l 0,0 c 2.81256,-13.62359 6.36055,-27.88475 11.09429,-42.1432 l 0,0 c 2.45663,-7.40193 5.28382,-14.92595 8.69123,-22.31864 l 0,0 c 3.01942,-6.56458 6.5676,-13.18627 11.05089,-19.33295 l 0,0 c 3.65129,-5.05014 8.16217,-9.94984 13.92443,-13.48549 l 0,0 c 5.07665,-3.09258 11.22514,-4.68199 17.43639,-3.96567 l 0,0 c 5.18435,0.61404 10.40371,2.32458 14.97512,5.39554 l 0,0 c 4.19041,2.87155 7.57502,6.72461 10.08182,11.03928 -10e-5,10e-6 0,8e-5 0,8e-5 l 0,0 c 2.7344,4.7031 4.5578,9.79517 5.8328,14.94621 l 0,0 c 1.4518,5.81652 2.285,11.7332 2.8044,17.67662 1.1616,13.25255 0.9026,26.37732 0.5631,39.9117 -1.4819,12.78604 -3.2966,26.22733 -4.0457,39.19361 1.288,-11.34538 0.6198,-22.5004 1.2419,-34.97523 0.891,-5.69978 2.1011,-11.53829 4.083,-17.26827 1.7545,-5.20528 4.3298,-10.3035 7.9864,-14.77005 2.3728,-9.34131 4.7662,-18.76591 7.1827,-28.2831 0.4543,-1.899 0.9095,-3.80138 1.3655,-5.7072 0.3921,-3.09888 1.0393,-5.6985 0.239,-7.21837 -0.3411,-1.63151 -2.4366,-3.16413 -4.6935,-5.29136 -1.8121,-1.6202 -3.6281,-3.24481 -5.4482,-4.87382 -0.6723,-3.50332 -1.3477,-7.01864 -2.0263,-10.54607 -1.1409,-8.09382 -2.4048,-16.222 -3.7715,-24.40887 -4.2079,-25.20447 -9.3573,-50.92639 -15.83722,-76.70812 -3.61516,-14.38251 -7.66727,-28.85331 -12.35982,-43.20714 -4.44658,-13.59514 -9.46611,-27.17587 -15.47793,-40.34113 -5.24017,-11.45342 -11.17984,-22.69163 -18.5823,-32.81573 -3.16132,-4.32512 -6.57299,-8.43641 -10.34612,-12.11717 -3.35913,-3.27059 -6.97364,-6.21898 -10.89018,-8.53722 -21.85956,-13.06615 -47.01065,-20.40877 -73.13496,-26.34043 -27.72239,-6.24807 -56.23966,-10.15425 -85.43321,-12.57955 -66.36664,-5.5037 -135.04304,-9.03757 -205.04331,-9.36843 -32.07747,-0.15091 -64.58708,0.38493 -97.15437,2.29277 -26.75351,1.57215 -53.73713,3.92846 -80.27239,8.7197 -0.59111,0.10689 -1.18189,0.21597 -1.7723,0.32725 -16.48923,3.10779 -32.53896,7.90468 -47.48416,14.88737 -15.1241,7.04526 -29.14361,16.36087 -41.89214,27.06592 -14.61972,12.27211 -27.72332,26.36486 -39.99045,41.00334 -15.86301,18.60913 -30.55042,38.24875 -44.75413,57.8558 -0.006,8.3e-4 -0.0244,0.003 -0.0244,0.003 -0.003,4.7e-4 -0.0682,0.01 -0.0715,0.0103 l 0,0 c -0.64711,0.35186 -1.29545,0.70402 -1.94504,1.05641 l -1e-5,0 c -0.34709,0.0479 -0.69651,0.0974 -1.04833,0.14782 l -1e-5,0 c -1.34674,0.19318 -2.69615,0.39679 -4.04869,0.60684 -4.94078,0.76734 -9.86931,1.61399 -14.78328,2.51754 -16.02433,2.94751 -31.81546,6.47666 -47.31814,10.7118 -18.63724,5.10065 -36.73348,11.06817 -53.753455,19.0712 -7.993724,3.7611 -15.674419,7.92322 -22.736944,12.83369 0,0 -7.8e-5,7e-5 -7.8e-5,7e-5 -6.235169,4.35534 -11.974854,9.17605 -16.458483,14.84323 1.4e-5,10e-6 -6.3e-5,8e-5 -6.3e-5,8e-5 -1.487442,1.8248 -2.637705,4.11042 -3.655669,6.58643 -1.144518,2.83273 -1.982498,5.8699 -2.670547,9.00756 -1.48395,6.78821 -2.125669,13.84459 -2.428876,20.9622 0,0 1e-6,1.1e-4 1e-6,1.1e-4 -0.250252,6.04352 -0.211833,12.09897 0.0508,18.13722 0.08187,1.87519 0.185287,3.74081 0.31803,5.59651 0.0365,0.51026 0.07482,1.01566 0.116461,1.51616 0.01091,0.13117 0.02185,0.25988 0.03302,0.3861 -0.115928,0.44327 -0.231884,0.88582 -0.347841,1.32767 -0.04055,0.1502 -0.08111,0.30031 -0.12167,0.45034 -5.122629,6.71689 -10.225222,13.39594 -15.306389,20.04611 1.17e-4,0.006 4.49e-4,0.0251 4.49e-4,0.0251 6e-5,0.003 0.0013,0.07 0.0014,0.0733 l 0,0 c 0.163949,-0.4016 0.328036,-0.80208 0.492195,-1.20143 0,0 5.3e-5,-1.3e-4 5.3e-5,-1.3e-4 0.0075,0.36221 0.0162,0.72625 0.02554,1.09227 l 0,0 c 0.03544,1.38905 0.07979,2.78058 0.129679,4.1746 l 0,0 c 0.178668,4.9921 0.428032,9.97491 0.733252,14.94313 l 0,0 c 0.943729,15.33215 2.380021,30.42806 4.628849,45.29489 0,0 1.9e-5,10e-5 1.9e-5,10e-5 1.233319,8.148 2.698641,16.16841 4.593545,24.02875 1.730692,7.15043 3.738058,14.08994 6.488799,20.61561 2.259279,5.23699 4.715567,10.13257 8.235749,13.72464 0,0 5.9e-5,6e-5 5.9e-5,6e-5 1.373277,1.4048 2.81211,2.59718 4.334776,3.32329 0,0 6.4e-5,3e-5 6.4e-5,3e-5 1.374919,0.67775 2.898881,1.06279 4.366045,1.06005 0,0 6.8e-5,0 6.8e-5,0 195.623392,0.93198 366.339342,1.93397 499.954562,2.92688 1.81217,0.009 3.6088,-0.33749 5.17134,-1.06854 0,0 5e-5,-2e-5 5e-5,-2e-5 1.55531,-0.69864 2.98936,-1.82492 4.27189,-3.14692 3.07372,-3.13858 5.12792,-7.45527 6.99791,-11.85894 2.11216,-5.07818 3.82469,-10.54075 5.59491,-15.81268 1.7183,-5.15656 3.47716,-10.29969 6.05215,-15.24213 8.32678,-15.8379 14.16436,-34.35552 19.57787,-49.77594 3.00462,-8.57818 5.92326,-16.61742 9.39956,-24.50174 3.26172,-7.41693 6.86995,-14.33361 11.50122,-20.52757 5.68544,-7.59145 11.41436,-14.39045 17.88076,-20.2972 4.68164,-4.30178 9.65327,-7.99633 15.33414,-10.2616 4.24492,-1.70648 8.88308,-2.27492 13.21947,-1.18422 4.34882,1.16893 7.91127,3.85506 10.5576,6.85 3.54667,3.9906 5.98878,8.62116 7.83945,12.90422 2.62473,6.0465 4.40114,12.17493 5.71831,17.52663 3.30066,13.40227 4.71765,25.98784 5.34353,32.66756 0.6977,7.44615 0.77169,11.29795 0.59234,11.31522 z"
         style="fill:#ffffff;fill-rule:evenodd;stroke:none;stroke-width:1px;stroke-linecap:butt;stroke-linejoin:miter;stroke-opacity:1" />
      <path
         sodipodi:nodetypes="czccc"
         inkscape:connector-curvature="0"
         inkscape:original-d="m 632.56711,444.01082 c 0,0 108.71265,9.42433 98.01192,118.05982 -10.70072,108.63549 -54.94608,113.60472 -54.94608,113.60472 L 559.05817,673.44782 C 517.745,656.07561 500.90479,624.71886 501.14203,583.60356"
         inkscape:path-effect="#path-effect7803"
         id="path7801"
         d="m 632.57247,444.01129 c 0.002,-0.0208 0.009,-0.0411 0.0212,-0.061 0.0154,-0.0191 0.0373,-0.0375 0.0657,-0.0552 0.0567,-0.0353 0.13912,-0.0677 0.24728,-0.097 l 0,0 0,0 c 0.21485,-0.0581 0.52857,-0.10315 0.94184,-0.13261 l 0,0 c 0.81162,-0.0579 1.98521,-0.0545 3.52572,0.0393 l 0,0 c 2.92253,0.17787 7.14415,0.67637 12.46529,1.77344 l 0,0 c 9.16996,1.88743 23.03669,5.84102 37.3697,14.21904 l 0,0 c 6.48573,3.7926 13.25416,8.64011 19.5935,14.76622 6.11015,5.90815 11.83909,13.07004 16.49209,21.44978 4.80111,8.66474 8.37687,18.47991 10.42709,29.11634 l -10e-6,0 10e-6,10e-6 0,0 c 2.29447,11.93093 2.70784,24.51221 1.50673,37.499 l 0,0 c -1.85716,20.52863 -5.32697,43.00691 -13.06728,64.78396 -3.43059,9.71124 -7.88231,19.55994 -14.01216,28.5632 -1.62473,2.38632 -3.35723,4.69852 -5.20775,6.92442 -5.0138,5.97881 -11.06652,11.30332 -18.28157,14.95168 -2.76591,0.91398 -5.5199,1.82345 -8.25986,2.72775 -43.61362,-0.94535 -83.90265,-2.01003 -118.17487,-3.09594 -21.77845,-9.33532 -37.28643,-23.27659 -46.31244,-38.34696 -8.96544,-15.41889 -11.1405,-31.17436 -11.66287,-40.34122 -0.56127,-9.84955 0.46519,-15.09442 0.89223,-15.09196 0.71306,0.004 0.83222,5.25617 2.3937,14.73106 1.4418,8.7487 4.61287,23.81285 13.589,37.48734 8.58226,13.47648 22.86198,25.49801 42.7665,33.68998 33.59455,0.21096 72.72094,0.66367 114.97471,1.35914 1.96928,-0.74253 3.94645,-1.48757 5.93028,-2.23459 5.4394,-2.70265 10.20753,-7.12261 14.47667,-12.24739 1.6387,-1.94766 3.17806,-3.99367 4.62893,-6.12636 5.4706,-8.04146 9.56453,-17.14521 12.90824,-26.30675 7.45331,-20.55155 10.97703,-42.26691 13.1194,-62.34334 l 0,0 c 1.28535,-12.25589 1.13582,-23.9761 -0.76982,-35.01754 0,0 -10e-6,-2e-5 -10e-6,-2e-5 l 0,0 c -1.69019,-9.82152 -4.72431,-18.89022 -8.88838,-26.90717 -4.02043,-7.75905 -9.07333,-14.51633 -14.51803,-20.18418 -5.65169,-5.88681 -11.811,-10.69946 -17.76704,-14.58157 l 0,0 c -13.13527,-8.5642 -26.34191,-13.32309 -35.02557,-16.03171 l 0,0 c -5.0735,-1.58062 -9.08379,-2.60225 -11.88096,-3.33635 l 0,0 c -1.45241,-0.38115 -2.59822,-0.68946 -3.34643,-0.93194 l 0,0 c -0.38752,-0.12559 -0.68206,-0.23763 -0.87673,-0.33734 l 0,0 0,0 c -0.0988,-0.0506 -0.17276,-0.0984 -0.2211,-0.14351 -0.0243,-0.0227 -0.0422,-0.0448 -0.0537,-0.0663 -0.008,-0.0217 -0.0112,-0.0429 -0.009,-0.0637 z"
         style="fill:#ffffff;fill-rule:evenodd;stroke:none;stroke-width:1px;stroke-linecap:butt;stroke-linejoin:miter;stroke-opacity:1" />
      <path
         inkscape:connector-curvature="0"
         inkscape:original-d="m 604.35155,518.26228 13.36526,-32.67064 11.88024,47.52094 5.1976,-2.22756 17.82034,-50.49098 25.2455,11.13772 -25.2455,49.74848 2.22756,2.22754 43.06584,-18.56286 6.68262,31.92812 -43.80836,9.65268 -2.22754,6.68264 42.32334,25.24548 -14.8503,28.21556 -35.6407,-37.12572 -5.94012,3.71256 11.13772,53.46106 -24.50298,5.1976 -3.71256,-56.4311 -5.94012,-4.4551 -24.50298,41.58082 -17.82036,-25.2455 31.18562,-30.4431 0,-5.1976 -24.50298,-0.7425 8.91018,-30.4431 17.07782,10.3952 4.4551,-7.42514 z"
         inkscape:path-effect="#path-effect7831"
         id="path7829"
         d="m 605.86168,518.88006 0.28905,-0.70658 11.19086,-27.35544 10.67257,42.69026 a 1.6316046,1.6316046 0 0 0 2.22561,1.10396 l 5.1976,-2.22756 a 1.6316046,1.6316046 0 0 0 0.89587,-0.95665 l 17.23427,-48.83045 22.05858,9.73173 -24.46608,48.21256 a 1.6316046,1.6316046 0 0 0 0.30127,1.89207 l 2.22756,2.22754 a 1.6316046,1.6316046 0 0 0 1.79955,0.34462 l 41.23208,-17.77245 5.94279,28.39339 -42.23166,9.30527 a 1.6316645,1.6316 3.003903 0 0 -1.19683,1.07743 l -2.22754,6.68264 a 1.631648,1.6316041 24.625456 0 0 0.71207,1.91723 l 40.9949,24.45308 -13.07603,24.84446 -34.0737,-35.49343 a 1.6316046,1.6316046 0 0 0 -2.04177,-0.25366 l -5.94012,3.71256 a 1.6316046,1.6316046 0 0 0 -0.73256,1.71637 l 10.80615,51.86954 -21.06969,4.46933 -3.58888,-54.55119 a 1.6316308,1.631601 16.553309 0 0 -0.64913,-1.19818 l -5.94012,-4.45509 a 1.6316046,1.6316046 0 0 0 -2.38465,0.47693 l -23.22077,39.40495 -15.5616,-22.04559 30.19008,-29.47126 a 1.6316046,1.6316046 0 0 0 0.49186,-1.16753 c 0,0 0,-5.19759 0,-5.19759 a 1.6316046,1.6316121 0 0 0 -1.58218,-1.63087 l -22.39373,-0.67858 7.71997,-26.37656 15.26101,9.28931 a 1.6316046,1.6316046 0 0 0 2.24744,-0.55425 l 4.4551,-7.42514 a 1.6316046,1.6316046 0 0 0 0.0772,-1.53419 l -11.88024,-25.2455 z m -2.98644,0.077 11.50956,24.45781 -3.16238,5.27062 -15.6752,-9.54143 a 1.6316046,1.6316046 0 0 0 -2.41426,0.93539 l -8.91017,30.44306 a 1.631604,1.6316395 9.024922 0 0 1.51648,2.08922 l 22.9208,0.69455 c 0,-1.5829 0,1.51477 0,2.92731 l -30.69376,29.96295 a 1.6316046,1.6316046 0 0 0 -0.19323,2.10845 l 17.82036,25.2455 a 1.6316046,1.6316046 0 0 0 2.73866,-0.11257 l 23.57717,-40.00975 3.88138,2.91104 3.66333,55.68285 a 1.6316044,1.6316351 82.129848 0 0 1.96669,1.48897 l 24.50291,-5.19758 a 1.6316046,1.6316398 78.12779 0 0 1.25878,-1.92887 l -10.90574,-52.34753 3.85167,-2.40728 34.72284,36.16962 a 1.6316046,1.6316046 0 0 0 2.62086,-0.37003 l 14.8503,-28.21556 a 1.631641,1.6316046 29.287151 0 0 -0.60803,-2.16118 l -41.19629,-24.5732 1.51981,-4.55946 42.90431,-9.45349 a 1.6316046,1.6316046 0 0 0 1.24592,-1.92764 l -6.68262,-31.92812 a 1.6316046,1.6316046 0 0 0 -2.24284,-1.16408 l -42.04914,18.12463 -0.60792,-0.60791 24.70996,-48.69316 a 1.6316046,1.6316416 25.356054 0 0 -0.79638,-2.23116 l -25.2455,-11.13772 a 1.6316045,1.6316394 21.622939 0 0 -2.19718,0.94978 l -17.58217,49.81618 -2.77895,1.19098 -11.41557,-45.66228 a 1.6316046,1.6316046 0 0 0 -3.09302,-0.22206 l -13.0762,31.96406 -0.28906,0.70658 z"
         style="fill:#ffffff;fill-rule:evenodd;stroke:none;stroke-width:1px;stroke-linecap:butt;stroke-linejoin:miter;stroke-opacity:1" />
      <path
         sodipodi:nodetypes="ccssc"
         inkscape:connector-curvature="0"
         inkscape:original-d="m 718.69879,314.07078 -6.68264,-25.2455 c 7.06106,-82.28819 39.20474,-121.60013 89.10176,-112.11969 0,0 50.19048,6.63979 74.25145,14.10778 23.49701,7.29294 67.56882,29.70058 67.56882,29.70058"
         inkscape:path-effect="#path-effect7839"
         id="path7837"
         d="m 718.69879,314.07078 c -0.95004,0.25148 -4.27706,-8.78897 -9.29714,-25.01855 0.51442,-13.23377 2.22883,-33.75788 8.44187,-55.07926 3.66242,-12.4296 9.34122,-26.38905 18.91263,-38.62116 7.0749,-9.03719 16.78688,-17.02657 28.69954,-21.38921 4.77748,-1.70842 9.75019,-2.7888 14.81871,-3.29386 7.36942,-0.73433 14.70929,-0.2299 21.63404,1.13778 0.01,0.001 0.004,-3.3e-4 0.004,-3.3e-4 -2.7e-4,2e-5 0.0111,-0.001 0.0108,-10e-4 l 0,0 c 0.14546,0.02 0.29017,0.04 0.43414,0.0599 0,0 10e-6,0 10e-6,0 0.55296,0.0767 1.10394,0.15434 1.65244,0.23233 l 0,0 c 2.03106,0.28876 4.04964,0.58555 6.05096,0.88692 l 0,0 c 6.81978,1.02691 13.46978,2.11076 19.9632,3.25215 l 0,0 c 8.53549,1.49995 16.63244,3.06477 24.51357,4.81005 l 0,0 c 7.80101,1.72334 14.99801,3.48947 22.05443,5.82759 l 0,0 10e-6,0 0,0 c 7.46868,2.4848 14.57444,5.58035 20.63506,8.33568 8.24599,3.74359 15.79155,7.51795 21.88259,10.69961 l 0,0 c 0,0 1e-5,1e-5 1e-5,1e-5 l 0,0 c 7.34172,3.83465 13.22602,7.15771 17.23753,9.60924 l 0,0 c 2.2093,1.35014 3.8879,2.45849 5.00222,3.29595 l 0,0 c 0.57654,0.4333 1.00089,0.79326 1.26836,1.07641 l 0,0 c 0.13578,0.14373 0.23098,0.26749 0.28494,0.37087 l 0,0 c 0,0 0,0 0,0 0.006,0.0931 0.0176,0.15066 0.0261,0.18764 l 0,0 c -8.7e-4,0.0286 0.001,0.0447 0.004,0.0536 0.006,0.0108 0.006,0.0108 0.006,0.0108 0,0 0,0 -0.003,0.006 -0.0174,-0.001 -0.0316,0.006 -0.0542,0.0241 l 0,0 c -0.0349,0.015 -0.0878,0.04 -0.16666,0.0899 0,0 0,10e-6 0,10e-6 l 0,0 c -0.11506,0.0177 -0.27097,0.0144 -0.46684,-0.009 l 0,0 c -0.38557,-0.0468 -0.92692,-0.17305 -1.61721,-0.37472 l 0,0 c -1.33285,-0.38941 -3.22691,-1.06178 -5.63488,-1.98476 l 0,0 c -4.50783,-1.72784 -10.46485,-4.19459 -18.20271,-7.39106 l 0,0 -10e-6,-1e-5 0,0 c -6.13855,-2.53567 -14.21745,-5.87892 -22.35494,-9.02897 -6.11954,-2.36618 -13.21281,-5.06185 -20.29073,-7.09283 l 0,0 -1e-5,-1e-5 0,0 c -6.74711,-1.94572 -13.66952,-3.38336 -21.43462,-4.87891 l 0,0 c -7.79675,-1.4967 -15.77088,-2.84783 -24.26383,-4.18709 l 0,0 c -6.44761,-1.01642 -13.03876,-1.99721 -19.80669,-2.94708 l 0,0 c -1.98477,-0.27854 -3.98322,-0.55417 -5.98872,-0.82327 l 0,0 c -0.54169,-0.0727 -1.08333,-0.14482 -1.62427,-0.21589 0,0 -10e-6,0 -10e-6,0 -0.14085,-0.0185 -0.28107,-0.0369 -0.42069,-0.055 l 0,0 c -0.0697,-0.0101 -0.13921,-0.0202 -0.20853,-0.0302 0,0 -0.062,-0.009 -0.062,-0.009 -6.20185,-1.12584 -12.66161,-1.5707 -18.99119,-0.98198 -4.3557,0.40513 -8.56072,1.29151 -12.52499,2.71931 -9.82604,3.43651 -18.20827,10.26406 -24.57021,18.00928 -8.73143,10.62833 -14.31905,23.50956 -18.29362,35.19056 -6.66439,19.34799 -9.61411,39.25732 -11.32666,52.05518 3.44676,15.7503 5.01671,25.22136 4.06814,25.47245 z"
         style="fill:#ffffff;fill-rule:evenodd;stroke:none;stroke-width:1px;stroke-linecap:butt;stroke-linejoin:miter;stroke-opacity:1" />
      <path
         sodipodi:nodetypes="cc"
         inkscape:connector-curvature="0"
         inkscape:original-d="m 710.53113,310.35821 c 17.53705,77.43834 8.91018,114.84224 13.36526,172.26337"
         inkscape:path-effect="#path-effect7847"
         id="path7845"
         d="m 710.53113,310.35821 c 0.0752,4.30098 0.0726,8.46959 -0.002,12.51501 7.43348,34.46225 9.50943,60.75612 10.35648,85.29595 0.84734,24.54815 0.46331,47.28932 3.01052,74.45241 -1.67199,-27.21431 -0.40847,-49.87019 -0.38092,-74.49785 0.0276,-24.63597 -1.18179,-51.28622 -7.83174,-86.29543 -1.65184,-3.7365 -3.36761,-7.5566 -5.1526,-11.47009 z"
         style="fill:#ffffff;fill-rule:evenodd;stroke:none;stroke-width:1px;stroke-linecap:butt;stroke-linejoin:miter;stroke-opacity:1" />
      <path
         sodipodi:nodetypes="cc"
         inkscape:connector-curvature="0"
         inkscape:original-d="m 806.07735,177.90113 c 27.10615,85.63667 75.00469,213.14364 32.16629,374.51681"
         inkscape:path-effect="#path-effect7851"
         id="path7849"
         d="m 806.07735,177.90113 c 3.75052,6.19019 7.60445,12.58784 11.55436,19.28127 12.89139,42.80826 28.39383,94.50065 35.47515,154.12832 7.08092,59.62421 5.71169,126.92479 -14.86322,201.10722 18.91528,-74.57599 18.48155,-141.64013 9.78961,-200.42911 -8.69225,-58.79106 -25.67526,-109.53964 -40.13917,-151.67001 -0.6958,-7.71935 -1.3233,-15.21115 -1.81673,-22.41769 z"
         style="fill:#ffffff;fill-rule:evenodd;stroke:none;stroke-width:1px;stroke-linecap:butt;stroke-linejoin:miter;stroke-opacity:1" />
      <path
         sodipodi:nodetypes="cc"
         inkscape:connector-curvature="0"
         inkscape:original-d="m 884.78391,192.91018 c 45.55744,92.5152 76.63201,180.80719 76.71715,237.73538"
         inkscape:path-effect="#path-effect7855"
         id="path7853"
         d="m 884.78391,192.91018 c 1.45305,5.92964 2.85054,11.8308 4.18893,17.69647 21.18074,42.90125 38.95943,84.55266 51.6185,122.13669 12.65288,37.56565 20.21276,71.1292 20.90972,97.90222 0.61883,-26.85981 -5.66066,-60.86312 -17.14434,-99.09749 -11.47924,-38.21958 -28.14332,-80.61992 -48.25627,-124.33927 -3.72881,-4.76377 -7.5024,-9.53187 -11.31654,-14.29862 z"
         style="fill:#ffffff;fill-rule:evenodd;stroke:none;stroke-width:1px;stroke-linecap:butt;stroke-linejoin:miter;stroke-opacity:1" />
      <path
         sodipodi:nodetypes="csszzzc"
         inkscape:connector-curvature="0"
         inkscape:original-d="m 878.33942,599.19636 c 0,0 12.98184,76.27201 36.10819,75.73649 l 64.13127,-1.48503 c 16.25269,-0.37635 27.72532,-63.91483 25.98802,-100.98198 -1.7373,-37.06715 -5.55896,-113.2058 -40.09578,-111.37718 -34.53682,1.82861 -36.91396,92.7293 -34.15568,129.19752 2.75827,36.46823 34.15568,78.70655 34.15568,78.70655"
         inkscape:path-effect="#path-effect7859"
         id="path7857"
         d="m 878.33942,599.19637 c 0.47417,-0.0952 1.76774,3.97357 3.75658,11.63544 1.63327,5.81909 4.36491,15.61339 7.95223,25.6955 2.65011,7.41584 6.25542,17.0331 11.64597,25.13296 1.9047,2.82837 4.03653,5.63018 6.63669,7.55578 1.01695,0.75638 2.06991,1.39468 3.13691,1.76526 0.95205,0.3365 1.9541,0.51408 2.89893,0.45885 19.00093,-0.75545 40.55242,-1.52938 64.11239,-2.30046 0,0 1e-5,0 1e-5,0 0.2895,0.009 0.69003,-0.13925 1.12688,-0.35039 0,-10e-6 10e-6,-10e-6 10e-6,-10e-6 0.54185,-0.26109 1.11567,-0.76005 1.75255,-1.37602 0,0 10e-6,-10e-6 10e-6,-10e-6 1.71474,-1.66935 3.04077,-4.03514 4.408,-6.70085 3.75244,-7.51264 5.97045,-15.91922 8.01424,-25.02988 2.29315,-10.37475 3.896,-21.14032 4.93449,-32.32051 0.92548,-10.04586 1.43289,-20.37232 0.91757,-30.66494 -0.53718,-10.84927 -1.14561,-22.01598 -2.18018,-33.0678 -0.45299,-4.81655 -0.97317,-9.65435 -1.60855,-14.47472 -0.98161,-7.44705 -2.22107,-14.72198 -3.88061,-21.82609 -1.27997,-5.47335 -2.77658,-10.76131 -4.71202,-15.78953 -1.72509,-4.44509 -3.6839,-8.60707 -6.21607,-12.20216 -2.18233,-3.04708 -4.61829,-5.69218 -7.44502,-7.2861 -2.61633,-1.55811 -5.79465,-2.28205 -8.86381,-2.13647 -3.07266,0.0948 -6.20399,1.45146 -8.74354,3.46095 -3.1018,2.41432 -5.54145,5.96763 -7.67433,9.77002 -5.76976,10.41813 -8.46726,22.71226 -10.53805,34.27658 0,0 0,2e-5 0,2e-5 -2.51002,14.31992 -3.63163,28.55201 -4.15715,41.65844 -0.49846,12.57352 -0.47415,24.02944 0.16666,34.94389 0.54149,9.65642 3.08728,19.00251 5.77663,26.93066 0,0 1e-5,2e-5 1e-5,2e-5 3.28081,9.65813 7.31292,18.40053 10.73046,25.25793 9.65664,16.69093 14.81262,26.32499 14.18569,26.7787 0,0 0,0 0,0 0,0 0,0 0,0 0,0 0,0 0,0 0,0 -10e-6,0 -10e-6,0 -0.002,0.001 -0.002,0.001 -0.002,0.001 0,0 0,0 -0.002,0.001 0,0 0,0 0,0 0,0 0,0 0,0 0,0 -1e-5,10e-6 -1e-5,10e-6 0,0 0,0 0,0 -0.64987,0.41755 -7.02002,-8.39852 -17.91684,-24.60539 -3.96723,-6.76774 -8.57759,-15.47263 -12.48373,-25.42244 0,0 0,-10e-6 0,-10e-6 -3.18021,-8.08657 -6.22837,-17.83565 -7.21798,-28.41793 -1.02848,-11.15859 -1.3966,-22.90202 -1.20047,-35.6861 0.19928,-13.36305 1.05162,-27.97195 3.39433,-42.88876 0,0 0,-2e-5 0,-2e-5 1.82983,-11.93605 4.6263,-25.15896 10.9991,-37.2808 2.35003,-4.51899 5.51871,-9.04995 9.92232,-12.729 3.91342,-3.2294 8.86804,-5.34764 14.24967,-5.70046 4.89458,-0.27608 9.87739,0.83728 14.27109,3.34431 4.4042,2.59929 7.90566,6.17505 10.60184,10.07046 3.15408,4.4969 5.51774,9.35952 7.41375,14.28706 2.16405,5.58263 3.8157,11.3072 5.1718,17.08926 1.7597,7.49514 3.0686,15.094 4.0868,22.79082 0.6592,4.98274 1.1889,9.94873 1.6379,14.8623 1.0394,11.32137 1.62,22.62851 2.1021,33.52728 0.48,10.94423 -0.1131,21.72637 -1.1668,32.0615 -1.1661,11.52288 -2.9532,22.67409 -5.4767,33.45316 -2.1598,9.35107 -4.77865,18.45585 -9.14314,26.9847 -1.52228,3.04475 -3.46587,6.15638 -6.20662,8.89484 0,0 -3e-5,10e-6 -3e-5,10e-6 -1.0723,1.07494 -2.39267,2.08268 -3.97726,2.89981 0,0 -3e-5,1e-5 -3e-5,1e-5 -1.42455,0.7327 -3.07048,1.17022 -4.85165,1.22732 0,-10e-6 -3e-5,0 -3e-5,0 -23.57041,0.32028 -45.13463,0.54474 -64.15015,0.6696 -1.95835,0.012 -3.83385,-0.37444 -5.53254,-1.06508 -1.84016,-0.75594 -3.44197,-1.77615 -4.81093,-2.90928 -3.3938,-2.82153 -5.85774,-6.23152 -7.77489,-9.45241 -5.52935,-9.1862 -8.77491,-19.2653 -11.00816,-26.97067 -3.13256,-10.74461 -5.0145,-20.38101 -6.03348,-26.62121 -1.12666,-7.86217 -1.50326,-12.11535 -1.02907,-12.21052 z"
         style="fill:#ffffff;fill-rule:evenodd;stroke:none;stroke-width:1px;stroke-linecap:butt;stroke-linejoin:miter;stroke-opacity:1" />
      <path
         sodipodi:nodetypes="ccccccccccccccccccccccc"
         inkscape:connector-curvature="0"
         inkscape:original-d="m 940.90025,560.44646 11.13772,11.13771 -0.74251,9.65269 -9.65269,19.30538 4.45509,24.50299 10.39521,-26.73053 2.22754,43.06585 11.13772,4.45508 -3.71258,-48.26345 18.56286,34.15567 8.16766,-25.24549 -22.27543,-28.21556 20.04789,-2.97006 2.22754,-28.95806 -23.76046,8.91018 17.82034,-39.35328 -11.1377,-19.30538 -13.36527,43.06584 2.97005,-46.0359 -12.62274,11.88024 0,38.61076 -7.9867,-9.02344 z"
         inkscape:path-effect="#path-effect7863"
         id="path7861"
         d="m 940.3031,561.04361 10.86307,10.86306 -0.70004,9.10048 -9.5787,19.15741 a 0.84448925,0.8445486 53.128491 0 0 -0.0755,0.52875 l 4.45509,24.50299 a 0.84449909,0.84450761 0 0 0 1.61796,0.155 l 8.96814,-23.06091 2.02416,39.13378 a 0.84450112,0.84450112 0 0 0 0.52973,0.74048 l 11.13771,4.45508 a 0.84450546,0.84450088 0 0 0 1.15566,-0.84887 l -3.40947,-44.32313 16.67572,30.68334 a 0.84452295,0.84449764 39.702996 0 0 1.54552,-0.14327 l 8.16766,-25.24549 a 0.84450112,0.84450112 0 0 0 -0.14067,-0.78324 l -21.37155,-27.07066 18.60494,-2.75629 a 0.84450112,0.84450112 0 0 0 0.71825,-0.77061 l 2.22754,-28.95806 a 0.8445002,0.84451983 81.921038 0 0 -1.13856,-0.85549 l -21.85527,8.19573 16.981,-37.49975 a 0.84455439,0.84449561 42.191583 0 0 -0.0378,-0.7704 l -11.13768,-19.30536 a 0.84450112,0.84450112 0 0 0 -1.53805,0.17171 l -11.25831,36.27674 2.51239,-38.94207 a 0.84452579,0.84449647 70.21425 0 0 -1.42154,-0.66939 l -12.62274,11.88024 a 0.84461775,0.84448277 68.370974 0 0 -0.26571,0.61501 c 0,0 0,28.16044 0,36.38242 l -6.50983,-7.35486 a 0.84450112,0.84450112 0 0 0 -1.46709,0.43156 l -3.89354,25.35876 z m 1.43187,-0.46899 3.6202,-23.57849 6.79295,7.67473 a 0.84450112,0.84450112 0 0 0 1.47687,-0.55972 c 0,0 0,-34.31817 0,-38.24587 l 10.79762,-10.16248 -2.83218,43.89888 a 0.84450112,0.84450112 0 0 0 1.6493,0.30468 l 12.79265,-41.22073 9.95565,17.25649 -17.64152,38.95839 a 0.84451509,0.84449873 1.9027961 0 0 1.06585,1.13908 l 22.52032,-8.44512 -2.07428,26.96565 -19.38132,2.87131 a 0.84450112,0.84450112 0 0 0 -0.53907,1.35867 l 21.99591,27.86151 -7.42303,22.9439 -17.62313,-32.42656 a 0.84450899,0.84449782 28.539433 0 0 -1.58402,0.46801 l 3.60852,46.9107 -9.37619,-3.75047 -2.19963,-42.5261 a 0.84450112,0.84450112 0 0 0 -1.63045,-0.26247 l -9.31191,23.94491 -3.87007,-21.28539 9.52679,-19.0536 a 0.84450112,0.84450112 0 0 0 0.0867,-0.3129 l 0.74251,-9.65269 a 0.84450112,0.84450112 0 0 0 -0.24486,-0.66192 L 941.4974,559.84931 Z"
         style="fill:#ffffff;fill-rule:evenodd;stroke:none;stroke-width:1px;stroke-linecap:butt;stroke-linejoin:miter;stroke-opacity:1" />
      <path
         sodipodi:nodetypes="cc"
         inkscape:connector-curvature="0"
         inkscape:original-d="m 551.63303,588.05864 c 3.13842,41.35504 13.33584,76.35697 55.68858,82.41912"
         inkscape:path-effect="#path-effect7867"
         id="path7865"
         d="m 551.63303,588.05864 c 2.32638,-0.17655 3.82866,11.90251 8.41354,28.49901 1.91594,6.89067 4.45214,14.81079 8.30768,22.07798 0.25428,0.47929 0.51289,0.95325 0.77598,1.42194 4.10243,7.32367 9.13291,13.05039 14.53717,17.19853 5.88387,4.59228 12.41425,7.41916 16.65614,9.23113 4.43592,1.89486 7.13816,3.01181 6.99807,3.99053 -0.10445,0.72974 -12.38235,3.94361 -28.60091,-6.01815 -6.95439,-4.3385 -13.46432,-10.89289 -18.30703,-19.51111 -0.30513,-0.544 -0.60344,-1.09328 -0.89498,-1.64777 -4.45873,-8.48005 -6.84337,-17.24662 -8.16019,-24.79679 -3.17425,-18.03608 -1.2503,-30.32958 0.27453,-30.4453 z"
         style="fill:#ffffff;fill-rule:evenodd;stroke:none;stroke-width:1px;stroke-linecap:butt;stroke-linejoin:miter;stroke-opacity:1" />
      <path
         inkscape:connector-curvature="0"
         inkscape:original-d="m 820.2878,358.75151 27.52067,-3.05786"
         inkscape:path-effect="#path-effect7875"
         id="path7873"
         d="m 820.2878,358.75151 c -0.30479,-2.74312 5.61247,-5.65438 13.20818,-6.49835 7.5957,-0.84397 14.0077,0.69737 14.31249,3.44049 0.30479,2.74312 -5.61247,5.65438 -13.20818,6.49835 -7.5957,0.84397 -14.0077,-0.69737 -14.31249,-3.44049 z"
         style="fill:#ffffff;fill-rule:evenodd;stroke:none;stroke-width:1px;stroke-linecap:butt;stroke-linejoin:miter;stroke-opacity:1" />
      <path
         inkscape:connector-curvature="0"
         inkscape:original-d="m 922.72586,349.57794 21.40496,0"
         inkscape:path-effect="#path-effect7879"
         id="path7877"
         d="m 922.72586,349.57794 c 0,-2.76 4.79471,-5 10.70248,-5 5.90777,0 10.70248,2.24 10.70248,5 0,2.76 -4.79471,5 -10.70248,5 -5.90777,0 -10.70248,-2.24 -10.70248,-5 z"
         style="fill:#ffffff;fill-rule:evenodd;stroke:none;stroke-width:1px;stroke-linecap:butt;stroke-linejoin:miter;stroke-opacity:1" />
      <path
         sodipodi:nodetypes="cccc"
         inkscape:connector-curvature="0"
         inkscape:original-d="m 228.59339,300.65231 c 149.5295,-11.31039 299.05368,-22.6581 452.56214,-6.11571 7.17561,-49.19769 17.361,-93.37905 36.69422,-122.31408 l -366.94226,6.11571"
         inkscape:path-effect="#path-effect7883"
         id="path7881"
         d="m 228.59339,300.65231 c -0.0735,-0.97179 49.87214,-6.89614 131.17324,-12.21201 77.81,-5.0876 197.58388,-10.44918 319.18505,3.25266 0,10e-6 4e-5,10e-6 4e-5,10e-6 0.73973,-6.76385 1.55123,-13.58239 2.47794,-20.41366 2.16624,-15.96848 4.9042,-31.5729 8.7264,-46.84624 6.19666,-18.19204 13.96084,-35.741 25.70921,-51.12845 -208.43833,5.54945 -364.90764,8.04196 -364.95778,5.03361 -0.05,-3.00177 157.0386,-5.74839 368.92674,-7.19781 -9.57749,16.53013 -15.45562,35.66713 -20.10322,55.98864 -4.93056,15.8125 -8.84861,32.06461 -12.2681,48.8013 -1.46274,7.15935 -2.81759,14.32494 -4.10357,21.44987 0,0 -4e-5,0 -4e-5,0 -121.28355,-12.47622 -244.23945,-6.91807 -322.0811,-2.87824 -82.3424,4.27341 -132.55243,7.90052 -132.68481,6.15032 z"
         style="fill:#ffffff;fill-rule:evenodd;stroke:none;stroke-width:1px;stroke-linecap:butt;stroke-linejoin:miter;stroke-opacity:1" />
      <path
         sodipodi:nodetypes="ccc"
         inkscape:connector-curvature="0"
         inkscape:original-d="m 439.58519,448.95814 157.4794,-32.10744 c 56.29135,-141.51653 125.19876,-36.26362 122.31409,56.57026"
         inkscape:path-effect="#path-effect7887"
         id="path7885"
         d="m 439.58519,448.95814 c -0.51594,-2.53055 66.35189,-17.64463 154.72128,-35.4042 0,0 10e-6,0 10e-6,0 4.6333,-12.73108 10.31896,-26.05859 18.14625,-38.43107 0.66603,-1.05277 1.3454,-2.09532 2.03874,-3.12733 6.2166,-9.09144 13.68937,-17.48471 23.30662,-23.28998 3.71619,-2.22229 7.78174,-3.9281 12.08979,-4.89185 3.96703,-0.8745 8.03981,-1.03765 12.0043,-0.49406 4.03333,0.56809 7.8384,1.82095 11.29042,3.53521 3.80548,1.89076 7.20748,4.26954 10.21378,6.87378 7.33675,6.37285 12.83258,14.05178 17.08488,21.4856 5.65024,9.82437 9.60588,19.89322 12.47049,29.11347 0,0 0,10e-6 0,10e-6 13.10972,42.1046 6.60121,69.09866 6.42693,69.09324 -2.64801,-0.0823 0.75787,-26.9723 -13.53034,-66.71505 0,0 0,-1e-5 0,-1e-5 -3.14013,-8.7159 -7.23056,-18.14074 -12.75388,-27.09673 -4.20139,-6.775 -9.28197,-13.59057 -15.66555,-18.82896 -2.58981,-2.13154 -5.3844,-4.02659 -8.3655,-5.42429 -2.68467,-1.25929 -5.54164,-2.1656 -8.42849,-2.51093 -2.81936,-0.35183 -5.75754,-0.1896 -8.60698,0.47106 -3.12627,0.71057 -6.20916,2.0694 -9.16655,3.84389 -7.8666,4.66572 -14.23644,12.11581 -20.15213,20.5307 -0.74102,1.03772 -1.47023,2.0875 -2.18827,3.14904 -8.43008,12.46294 -15.02737,26.13344 -20.69829,39.30778 0,0 -2e-5,0 -2e-5,0 -91.63676,18.94265 -159.72193,31.33936 -160.23749,28.81068 z"
         style="fill:#ffffff;fill-rule:evenodd;stroke:none;stroke-width:1px;stroke-linecap:butt;stroke-linejoin:miter;stroke-opacity:1" />
      <path
         sodipodi:nodetypes="cc"
         inkscape:connector-curvature="0"
         inkscape:original-d="M 899.79196,551.3962 C 927.70593,405.40455 960.19147,320.67211 1008.3457,445.90029"
         inkscape:path-effect="#path-effect7891"
         id="path7889"
         d="m 899.79196,551.3962 c -1.10013,-0.21035 -0.3069,-10.67829 2.39561,-28.02312 2.61676,-16.79449 7.38605,-42.13752 14.92399,-69.01436 0,0 10e-6,-1e-5 10e-6,-1e-5 2.86052,-10.20702 6.24916,-21.07938 10.53218,-31.86975 0.47476,-1.19608 0.95801,-2.38498 1.45029,-3.56677 3.66602,-8.86852 7.80105,-17.30035 13.48043,-24.87608 2.17774,-2.91409 4.6724,-5.67829 7.62088,-8.06991 2.46648,-2.02559 5.37932,-3.68742 8.67453,-4.6692 3.16662,-0.8997 6.449,-0.95681 9.53744,-0.25069 3.57974,0.87117 6.63487,2.52372 9.13079,4.43567 3.41948,2.58817 6.17747,5.59849 8.45322,8.53038 3.29128,4.2128 5.95062,8.58956 8.14093,12.61601 0,0 0,10e-6 0,10e-6 12.48014,22.92879 14.69164,39.07803 14.21344,39.26191 -2.1905,0.84231 -6.9136,-14.47893 -20.47664,-35.55627 0,0 0,0 0,0 -2.35685,-3.65964 -5.06802,-7.56544 -8.18369,-11.11936 -2.18187,-2.4716 -4.57099,-4.8764 -7.23445,-6.67001 -1.93213,-1.27771 -3.96281,-2.3328 -5.95247,-2.66543 -1.61583,-0.31054 -3.37479,-0.21089 -4.97389,0.31187 -1.77996,0.53304 -3.54183,1.68038 -5.29741,3.12139 -2.10942,1.76129 -3.9961,3.99727 -5.84416,6.51303 -4.86075,6.64053 -8.47964,14.3668 -12.05902,22.9243 -0.46961,1.13168 -0.93213,2.27132 -1.38816,3.41914 -4.10576,10.33413 -7.51478,20.91441 -10.53138,30.88639 0,0 0,1e-5 0,1e-5 -7.65245,25.31501 -14.2171,52.14016 -18.17803,67.55057 -4.35312,16.93627 -7.25235,27.0063 -8.43444,26.78028 z"
         style="fill:#ffffff;fill-rule:evenodd;stroke:none;stroke-width:1px;stroke-linecap:butt;stroke-linejoin:miter;stroke-opacity:1" />
      <path
         sodipodi:nodetypes="ccccc"
         inkscape:connector-curvature="0"
         inkscape:original-d="m 95.576831,528.4623 321.074479,3.05785 C 405.61051,479.53667 394.12,427.55318 363.13889,375.5697 c -75.93666,-5.97321 -151.87333,-6.25685 -227.80999,0 -22.16584,47.39814 -37.907256,97.36604 -39.752069,152.8926 z"
         inkscape:path-effect="#path-effect7903"
         id="path7901"
         d="m 95.576831,528.4623 c 0.02632,-2.76365 135.744489,-2.05535 318.739009,1.14785 -6.1126,-24.10905 -12.78992,-49.87846 -21.6998,-74.57823 -3.20216,-10.88608 -6.87896,-21.75947 -11.10381,-32.50118 -5.95818,-15.14872 -12.83173,-29.59165 -20.70183,-43.21314 -85.22368,-6.99587 -159.83935,-5.8262 -223.57573,-1.00825 0,0 0,2e-5 0,2e-5 -20.61809,44.03102 -30.34235,80.26174 -35.43794,107.88926 -4.940741,26.78792 -5.130266,42.29987 -6.219899,42.26367 -0.467138,-0.0155 -1.726338,-15.61169 2.438563,-43.31304 4.269226,-28.39523 13.963966,-66.40774 35.407726,-112.31918 0,0 10e-6,-3e-5 10e-6,-3e-5 65.14896,-5.80087 143.16235,-7.70783 232.04425,-1.00825 8.89298,14.50542 16.76138,29.84493 23.66594,45.88663 4.89617,11.37551 9.20524,22.86614 12.99607,34.3495 7.35279,27.32068 12.34473,55.45812 16.85737,81.37224 C 231.94681,533.11505 95.550566,531.22011 95.576831,528.4623 Z"
         style="fill:#ffffff;fill-rule:evenodd;stroke:none;stroke-width:1px;stroke-linecap:butt;stroke-linejoin:miter;stroke-opacity:1" />
      <path
         inkscape:connector-curvature="0"
         inkscape:original-d="m 35.948701,424.49533 41.281006,30.57852"
         inkscape:path-effect="#path-effect7907"
         id="path7905"
         d="m 35.948701,424.49533 c 1.642828,-2.21782 12.223083,2.8318 23.616641,11.27147 11.393557,8.43968 19.307193,17.08923 17.664365,19.30705 -1.642828,2.21782 -12.223083,-2.8318 -23.616641,-11.27147 C 42.219509,435.3627 34.305873,426.71315 35.948701,424.49533 Z"
         style="fill:#ffffff;fill-rule:evenodd;stroke:none;stroke-width:1px;stroke-linecap:butt;stroke-linejoin:miter;stroke-opacity:1" />
      <path
         inkscape:connector-curvature="0"
         inkscape:original-d="m 61.940453,361.80936 48.925637,19.87604 -18.347113,29.04959 -27.52067,-1.52892 -15.289271,7.64463"
         inkscape:path-effect="#path-effect7911"
         id="path7909"
         d="m 61.940453,361.80936 c 1.091318,-2.68632 22.704093,5.45526 51.919847,18.91427 0,0 1e-5,0 1e-5,0 -2.34108,4.12962 -4.82301,8.49273 -7.34834,12.89452 -4.23063,7.37423 -8.269336,14.30996 -12.12302,20.74415 -11.240356,-0.47777 -20.925221,-1.13148 -28.732834,-1.97773 0,0 -3e-6,0 -3e-6,0 -9.10246,3.78165 -15.3648,5.63068 -15.947077,4.46613 -0.58518,-1.17036 4.739019,-5.10008 14.631459,-10.82313 0,0 3e-6,0 3e-6,0 7.199242,-0.0127 16.034826,0.3628 26.308506,1.08011 3.321619,-4.92625 6.814145,-9.91589 10.577106,-15.19772 2.23797,-3.14129 4.49155,-6.27366 6.64576,-9.26279 0,0 0,0 0,0 -26.566661,-9.24624 -47.037952,-18.11403 -45.931417,-20.83781 z"
         style="fill:#ffffff;fill-rule:evenodd;stroke:none;stroke-width:1px;stroke-linecap:butt;stroke-linejoin:miter;stroke-opacity:1" />
      <path
         inkscape:connector-curvature="0"
         inkscape:original-d="m 586.36211,360.28042 -174.29759,19.87605 18.34713,32.10744 65.74382,-6.11569 36.69423,7.64463 47.3967,-7.64463 z"
         inkscape:path-effect="#path-effect7915"
         id="path7913"
         d="m 586.36211,360.28042 c 0.35896,3.14777 -74.98896,11.90698 -171.86924,21.10666 0,0 -2e-5,10e-6 -2e-5,10e-6 4.47568,6.80496 9.68984,14.71849 14.33421,21.78553 1.1798,1.79522 2.35336,3.58217 3.52243,5.36402 22.6516,-2.5741 43.87893,-4.91245 64.06597,-6.9998 0,0 1e-5,0 1e-5,0 12.86076,2.82092 25.09633,5.54163 36.52831,8.11976 17.65991,-2.01632 31.63951,-3.63367 45.48336,-5.27853 3.48531,-27.25742 6.68608,-44.26417 7.93497,-44.09765 1.24807,0.16641 -0.13695,17.56562 -4.29645,47.63795 -15.32398,3.09384 -28.84953,5.84438 -49.31004,10.01073 -11.52812,-2.20522 -23.87571,-4.60601 -36.86012,-7.16949 0,0 -2e-5,-1e-5 -2e-5,-1e-5 -21.17813,1.76063 -43.58429,3.48106 -67.42167,5.23158 -1.23813,-2.43074 -2.48043,-4.87156 -3.7283,-7.32474 -5.05207,-9.93183 -10.27325,-20.21987 -15.10932,-29.74059 0,0 2e-5,0 2e-5,0 100.18186,-13.28825 176.36874,-21.77747 176.7259,-18.64543 z"
         style="fill:#ffffff;fill-rule:evenodd;stroke:none;stroke-width:1px;stroke-linecap:butt;stroke-linejoin:miter;stroke-opacity:1" />
      <path
         sodipodi:nodetypes="cssc"
         inkscape:connector-curvature="0"
         inkscape:original-d="m 33.120602,553.40241 c 0,0 7.343224,113.45699 60.927294,115.7211 l 108.553764,4.58677 c 31.26429,1.32102 56.57026,-74.91737 56.57026,-74.91737"
         inkscape:path-effect="#path-effect7923"
         id="path7921"
         d="m 33.120966,553.40798 c 0.02643,-0.002 0.05316,0.002 0.08019,0.0104 0.02671,0.0122 0.05385,0.0312 0.08143,0.0569 0,0 0,0 0,0 0.05488,0.0512 0.111583,0.1291 0.170117,0.23324 l 0,0 0,0 c 0.115915,0.20608 0.239798,0.51609 0.372128,0.92519 l 0,0 c 0.258949,0.80053 0.555143,1.99631 0.894815,3.54195 l 0,0 c 0.647525,2.94641 1.477104,7.28618 2.575771,12.69095 l 0,0 c 1.865886,9.17259 4.873047,23.50959 9.771683,38.49527 l 0,0 c 2.124676,6.49663 4.722625,13.50716 8.005072,20.42672 l 10e-7,0 4e-6,10e-6 0,0 c 2.832435,5.95576 6.230344,12.06979 10.495313,17.56896 3.634955,4.66036 7.934709,9.05232 13.001673,12.0961 l 0,0 c 4.63089,2.81633 10.09968,4.58007 15.68597,4.76543 10.743135,0.39403 21.836905,0.8314 33.182235,1.31078 27.00227,1.14094 52.5646,2.39878 75.35451,3.6788 3.02405,0.24147 6.25557,-0.7145 9.18544,-2.15516 l 0,0 c 3.57174,-1.77788 6.80497,-4.47933 9.72944,-7.32661 l 0,0 c 7.64648,-7.48291 13.57208,-16.91747 18.04927,-24.51135 l 0,0 c 5.72985,-9.75878 10.35496,-19.32272 13.22434,-25.21779 l 0,0 c 1.73045,-3.55596 3.08887,-6.35877 4.10009,-8.26241 l 0,0 c 0.52937,-0.99657 0.96744,-1.75438 1.31186,-2.24942 l 0,0 c 0.17603,-0.25302 0.32875,-0.43903 0.45769,-0.55537 l 0,0 c 0.0651,-0.0586 0.12428,-0.0996 0.17751,-0.12281 l 0,0 0,0 0,0 c 0.0679,0.002 0.10402,-0.002 0.12313,-0.006 0.0189,-0.004 0.0211,-0.009 0.0213,-0.009 0,0 0,0 0,0 0,0 0,0 0,0 0,-10e-6 0,-10e-6 0,-10e-6 0,0 0,0 0,10e-6 0,0 0,0 0,0 0,0 0,0 0,0 -10e-5,3.6e-4 -0.001,0.005 0.0115,0.0201 0.0128,0.0148 0.0395,0.0393 0.095,0.0785 l 0,0 0,0 0,0 c 0.0285,0.0508 0.0506,0.11974 0.0664,0.20669 l 0,0 c 0.0315,0.17206 0.038,0.41375 0.0194,0.72391 l 0,0 c -0.0365,0.60906 -0.16971,1.47624 -0.4043,2.59314 l 0,0 c -0.44794,2.13264 -1.2628,5.16509 -2.49229,8.98269 l 0,0 c -2.10193,6.52914 -5.69482,16.25033 -11.01464,26.90403 l 0,0 c -4.04183,8.13373 -9.7205,18.30308 -17.90744,27.10333 -3.12456,3.37285 -6.90734,6.71806 -11.51012,9.28457 l 0,0 c -3.88584,2.18156 -8.55941,3.62221 -13.62402,3.52206 -22.81665,-0.64702 -48.39398,-1.55 -75.39625,-2.69094 -11.34532,-0.47938 -22.43645,-0.97939 -33.174533,-1.49302 -7.398785,-0.36332 -14.401965,-2.72721 -20.314256,-6.47652 l -10e-7,0 c -6.295345,-4.03207 -11.302466,-9.29701 -15.242204,-14.7255 -4.638224,-6.35916 -8.142634,-13.11979 -10.90347,-19.56935 l 0,0 -3e-6,-1e-5 0,0 c -3.218203,-7.49839 -5.612549,-14.93069 -7.459872,-21.76538 l 0,0 c -4.307239,-15.92854 -6.189339,-30.36681 -7.00178,-39.99873 l 0,0 c -0.473063,-5.5975 -0.614222,-10.01516 -0.555262,-13.08508 l 0,0 c 0.03079,-1.60316 0.116418,-2.83173 0.244545,-3.6758 l 0,0 c 0.06511,-0.42893 0.140773,-0.75557 0.22597,-0.97831 l 0,0 1e-6,0 c 0.04293,-0.11212 0.08813,-0.19759 0.135552,-0.25618 0,0 10e-7,0 10e-7,0 0.0238,-0.0294 0.04813,-0.052 0.07299,-0.0678 0.02563,-0.0124 0.05166,-0.0195 0.07809,-0.0213 z"
         style="fill:#ffffff;fill-rule:evenodd;stroke:none;stroke-width:1px;stroke-linecap:butt;stroke-linejoin:miter;stroke-opacity:1" />
      <path
         sodipodi:nodetypes="cccccccccccccc"
         inkscape:connector-curvature="0"
         inkscape:original-d="m 105.48538,599.35555 7.63684,-6.06455 8.53531,8.98452 -4.9415,12.57833 19.99057,17.74444 5.61533,-17.74444 14.59985,-1.79689 8.75993,17.74444 27.62741,-15.94755 -9.43375,-8.08606 26.95357,-2.47076 9.88298,-19.31673 -125.67106,-0.2246 z"
         inkscape:path-effect="#path-effect7931"
         id="path7929"
         d="m 106.01056,600.01689 7.03166,-5.58397 7.63265,8.03435 -4.74486,12.07778 a 0.84450092,0.84450761 0 0 0 0.2254,0.94038 l 19.99057,17.74444 a 0.84450093,0.84450523 0 0 0 1.36577,-0.37679 l 5.45168,-17.22731 13.46648,-1.6574 8.49455,17.20686 a 0.84450112,0.84450112 0 0 0 1.17944,0.35757 l 27.62741,-15.94755 a 0.84450112,0.84450112 0 0 0 0.1274,-1.37259 l -7.91726,-6.78622 24.96458,-2.28843 a 0.84449877,0.84452909 10.929574 0 0 0.67473,-0.45634 l 9.88297,-19.31671 a 0.84450059,0.84451029 0 0 0 -0.7503,-1.22916 L 95.042369,583.9112 a 0.84450112,0.84450112 0 0 0 -0.68835,1.33586 l 10.444521,14.59985 z m 0.16166,-1.1527 -9.486762,-13.26105 122.647042,0.2192 -9.04362,17.67615 -26.4906,2.42832 a 0.84450112,0.84450112 0 0 0 -0.4725,1.48217 l 8.5281,7.30979 -25.81385,14.9007 -8.361,-16.93634 a 0.84450112,0.84450112 0 0 0 -0.86041,-0.46435 l -14.59985,1.79689 a 0.84450112,0.84450112 0 0 0 -0.70199,0.58339 l -5.22273,16.50383 -18.57636,-16.48913 4.72586,-12.02944 a 0.84450076,0.84450837 0 0 0 -0.17376,-0.89045 l -8.53531,-8.98452 a 0.84450112,0.84450112 0 0 0 -1.13744,-0.0797 l -7.63684,6.06455 z"
         style="fill:#ffffff;fill-rule:evenodd;stroke:none;stroke-width:1px;stroke-linecap:butt;stroke-linejoin:miter;stroke-opacity:1" />
      <path
         sodipodi:nodetypes="cc"
         inkscape:connector-curvature="0"
         inkscape:original-d="m 671.78458,300.12973 c -82.76723,12.72792 -102.63616,32.85562 -111.77824,54.24532"
         inkscape:path-effect="#path-effect7939"
         id="path7937"
         d="m 671.78458,300.12973 c -2.60227,1.90832 -5.1108,3.82218 -7.52545,5.7405 -36.40089,5.40198 -59.535,12.33087 -74.83438,20.14964 -16.37565,8.36879 -24.11985,17.92833 -29.41841,28.35518 3.85403,-10.977 10.59432,-22.14787 27.14097,-32.38647 15.35714,-9.50257 38.87206,-18.01834 75.62635,-24.93787 2.95623,1.0152 5.95258,2.03974 9.01092,3.07902 z"
         style="fill:#ffffff;fill-rule:evenodd;stroke:none;stroke-width:1px;stroke-linecap:butt;stroke-linejoin:miter;stroke-opacity:1" />
      <path
         sodipodi:nodetypes="ccc"
         inkscape:connector-curvature="0"
         inkscape:original-d="m 946.29882,222.04934 13.97227,89.58698 c -81.36798,-7.55125 -158.62648,3.48836 -239.99446,13.15038"
         inkscape:path-effect="#path-effect7943"
         id="path7941"
         d="m 946.29882,222.04934 -4.62166,7.88305 14.90631,78.40384 c -80.30298,-5.88669 -156.53246,5.9863 -236.30684,16.45047 81.65211,-8.68399 158.73997,-18.67894 239.7165,-10.15525 a 3.0887748,2.9760793 89.283262 0 0 3.25003,-3.45866 l -10.14164,-83.02218 -6.8027,-6.10127 z"
         style="fill:#ffffff;fill-rule:evenodd;stroke:none;stroke-width:1px;stroke-linecap:butt;stroke-linejoin:miter;stroke-opacity:1" />
      <path
         inkscape:connector-curvature="0"
         inkscape:original-d="m 44.675725,530.26143 538.343775,0.8219"
         inkscape:path-effect="#path-effect7947"
         id="path7945"
         d="m 44.675725,530.26143 c 0.0042,-2.76 120.596635,-4.81589 269.179525,-4.58904 148.58288,0.22684 269.16846,2.65094 269.16425,5.41094 -0.004,2.76 -120.59664,4.81589 -269.17952,4.58904 C 165.2571,535.44553 44.671511,533.02143 44.675725,530.26143 Z"
         style="fill:#ffffff;fill-rule:evenodd;stroke:none;stroke-width:1px;stroke-linecap:butt;stroke-linejoin:miter;stroke-opacity:1" />
      <path
         sodipodi:nodetypes="cccc"
         inkscape:connector-curvature="0"
         inkscape:original-d="m 376.72288,419.30507 -253.14487,2.46569 -11.50659,46.02635 276.15804,-2.46569"
         inkscape:path-effect="#path-effect7951"
         id="path7949"
         d="m 376.72288,419.30507 -8.31045,7.45578 -241.16543,-0.0188 -11.81799,38.56985 272.80045,0.0196 -276.13585,4.95119 a 2.4638835,2.592195 5.3087019 0 1 -2.43357,-3.08835 l 9.0952,-46.62919 a 5.0238843,4.6431679 4.4837869 0 1 4.77435,-3.76527 l 244.73918,-4.78722 8.45411,7.29249 z"
         style="fill:#ffffff;fill-rule:evenodd;stroke:none;stroke-width:1px;stroke-linecap:butt;stroke-linejoin:miter;stroke-opacity:1" />
      <ellipse
         ry="25.478867"
         rx="25.889816"
         cy="490.8103"
         cx="506.17197"
         id="path7953"
         style="fill:#ffffff;fill-opacity:1;stroke:none;stroke-width:1.25;stroke-linecap:round;stroke-linejoin:round;stroke-miterlimit:4;stroke-dasharray:none;stroke-opacity:1" />
      <ellipse
         style="fill:#ffffff;fill-opacity:1;stroke:none;stroke-width:1.25;stroke-linecap:round;stroke-linejoin:round;stroke-miterlimit:4;stroke-dasharray:none;stroke-opacity:1"
         id="ellipse7955"
         cx="52.072788"
         cy="490.81024"
         rx="18.903675"
         ry="23.01317" />
      <path
         inkscape:connector-curvature="0"
         inkscape:original-d="m 744.93359,550.8089 161.91407,4.93139"
         inkscape:path-effect="#path-effect7959"
         id="path7957"
         d="m 744.93359,550.8089 c 0.084,-2.75872 36.42097,-3.89305 81.10925,-2.53199 44.68828,1.36107 80.88884,4.70466 80.80482,7.46338 -0.084,2.75872 -36.42097,3.89305 -81.10925,2.53199 -44.68828,-1.36107 -80.88884,-4.70466 -80.80482,-7.46338 z"
         style="fill:#ffffff;fill-rule:evenodd;stroke:none;stroke-width:1px;stroke-linecap:butt;stroke-linejoin:miter;stroke-opacity:1" />
    </g>
  </g>
</svg>
