<?xml version="1.0" standalone="no"?>
<!DOCTYPE svg PUBLIC "-//W3C//DTD SVG 20010904//EN"
 "http://www.w3.org/TR/2001/REC-SVG-20010904/DTD/svg10.dtd">
<svg version="1.0" xmlns="http://www.w3.org/2000/svg"
 width="297mm"
   height="210mm"  viewBox="0 0 866.000000 807.000000"
 preserveAspectRatio="xMidYMid meet"> 

<g transform="translate(0.000000,807.000000) scale(0.100000,-0.100000)"
fill="#FFFFFF" stroke="none">
<path d="M3287 8059 c-38 -5 -124 -21 -190 -35 -67 -14 -178 -36 -247 -49
-164 -30 -222 -53 -331 -132 -116 -83 -154 -99 -264 -113 -128 -16 -190 -51
-273 -156 -112 -141 -158 -189 -208 -216 -35 -19 -119 -41 -289 -77 -367 -78
-398 -86 -735 -196 -204 -66 -332 -113 -365 -134 -46 -29 -54 -31 -131 -29
-45 2 -85 0 -89 -4 -3 -3 5 -53 19 -111 14 -57 32 -171 41 -253 9 -82 25 -218
36 -302 26 -207 25 -279 -3 -309 -16 -17 -22 -39 -25 -85 -2 -35 -8 -77 -14
-94 -12 -40 -61 -86 -129 -122 -64 -34 -81 -68 -83 -170 l-2 -63 70 -67 c39
-37 123 -116 188 -176 l118 -109 -7 -41 c-3 -23 -18 -70 -32 -106 -18 -48 -25
-85 -26 -140 0 -70 3 -83 52 -189 59 -127 87 -227 76 -275 -4 -17 -33 -82 -65
-143 -75 -143 -76 -166 -15 -279 67 -125 71 -144 47 -200 -12 -26 -21 -54 -21
-63 0 -23 41 -60 117 -105 34 -20 64 -45 67 -54 26 -80 33 -335 12 -403 -7
-24 -46 -115 -85 -202 -40 -87 -71 -166 -69 -175 4 -20 37 -30 106 -31 51 -1
54 0 67 32 7 18 17 61 21 95 3 34 9 62 13 62 18 0 157 -43 168 -52 7 -6 13
-30 13 -55 0 -47 46 -169 80 -213 17 -22 22 -23 39 -12 32 19 51 15 160 -29
86 -34 108 -39 145 -34 l45 7 11 -43 c16 -60 26 -69 76 -69 39 0 44 -3 44 -22
1 -77 22 -83 152 -42 46 15 103 27 127 27 38 0 49 -5 78 -36 18 -20 33 -41 33
-45 0 -5 -21 -24 -47 -43 -72 -51 -123 -99 -140 -132 l-15 -30 129 -127 c110
-108 135 -140 178 -219 28 -51 65 -106 83 -122 31 -27 34 -28 60 -15 16 8 48
36 72 63 64 70 78 77 150 83 l65 5 0 60 c0 54 -5 68 -48 139 -26 43 -46 80
-44 82 2 2 52 -11 111 -28 91 -27 116 -39 157 -76 26 -23 58 -62 71 -84 l23
-42 75 3 c41 1 115 11 164 22 101 22 106 21 106 -47 l0 -42 -65 -17 c-36 -10
-65 -21 -65 -24 1 -26 79 -132 154 -208 l91 -92 45 5 c25 3 65 12 89 20 87 28
136 15 353 -91 126 -61 127 -62 147 -163 6 -29 18 -66 26 -83 19 -35 85 -85
125 -94 49 -11 64 -38 71 -131 4 -46 12 -91 19 -99 7 -8 27 -15 46 -15 32 0
33 -2 39 -47 12 -101 9 -98 107 -96 119 4 130 10 157 79 26 70 46 94 77 94 13
0 44 18 69 40 25 22 52 40 60 40 8 0 35 -41 61 -91 55 -107 93 -149 135 -149
48 0 98 -26 105 -54 7 -30 4 -56 -22 -148 -18 -67 -18 -68 1 -82 29 -22 88
-20 110 4 24 27 35 25 106 -11 34 -17 67 -28 74 -25 7 2 16 20 20 38 13 58 41
101 118 180 88 90 132 110 200 89 79 -23 87 -23 136 -2 28 11 56 21 64 21 9 0
58 -29 111 -64 98 -66 140 -83 159 -68 160 127 253 192 272 192 13 0 49 -10
80 -22 56 -21 56 -21 130 -3 l74 19 78 -37 c44 -20 83 -37 89 -37 30 0 117
-34 143 -56 16 -13 37 -46 47 -72 30 -81 27 -79 239 -159 228 -86 378 -133
426 -133 35 0 57 -7 90 -30 l44 -30 18 22 c14 16 17 35 15 82 l-3 60 -58 44
c-31 24 -63 53 -69 65 -8 14 -13 67 -14 142 -1 133 -25 232 -70 292 l-25 33
21 40 c108 212 502 777 654 940 34 36 90 99 125 141 72 87 107 109 206 133 39
9 82 21 97 27 81 32 118 333 54 443 -14 23 -32 48 -40 56 -9 7 -16 18 -16 25
0 21 40 65 59 65 10 0 26 9 36 20 22 24 10 42 -46 70 -53 28 -106 96 -177 230
-52 96 -125 199 -182 255 -55 54 -61 79 -35 142 8 19 15 50 15 68 0 32 -8 46
-105 181 -40 56 -40 57 -43 163 l-4 106 31 29 31 29 -7 86 c-4 64 -1 108 12
168 17 81 17 82 -4 127 -25 51 -108 119 -202 167 -51 25 -79 34 -173 54 l-29
6 6 64 c7 70 22 105 103 236 77 125 145 183 244 209 64 17 134 64 180 123 50
63 55 81 41 162 -7 36 -18 136 -27 223 -22 241 -28 264 -94 382 -91 162 -131
256 -213 501 -117 349 -130 402 -131 549 -2 147 -16 189 -91 269 -36 38 -66
58 -132 85 -47 20 -116 58 -153 85 -136 99 -200 115 -242 61 -21 -27 -32 -31
-123 -44 -181 -27 -831 -76 -1000 -76 -144 0 -690 46 -890 75 -238 34 -419 55
-495 58 -62 2 -70 0 -130 -40 -78 -51 -127 -69 -239 -88 -154 -27 -307 -12
-415 41 -87 43 -101 64 -114 172 -11 94 -44 187 -87 247 -26 36 -37 65 -26 65
17 0 126 -87 172 -137 26 -27 54 -64 63 -82 15 -27 22 -32 49 -29 22 2 36 11
46 30 14 25 14 29 -5 55 -29 39 -198 187 -264 231 -30 20 -77 42 -105 49 -68
18 -225 24 -308 12z m261 -34 c82 -19 108 -33 222 -120 107 -81 173 -149 168
-172 -5 -28 -26 -25 -43 6 -33 64 -246 251 -287 251 -17 0 -8 -87 13 -113 54
-70 109 -230 109 -319 0 -36 6 -47 43 -83 90 -85 205 -120 377 -112 157 6 282
37 361 88 34 22 63 38 66 35 3 -2 -3 -16 -12 -30 -16 -25 -53 -45 -207 -114
-61 -28 -68 -34 -68 -59 0 -15 9 -39 20 -53 27 -34 25 -46 -15 -93 -70 -82
-55 -146 60 -255 53 -51 83 -72 118 -81 56 -16 59 -28 21 -112 -28 -62 -39
-68 -90 -49 -15 6 -34 8 -43 5 -20 -6 -70 -82 -134 -203 l-50 -94 -56 6 c-31
4 -91 12 -133 18 -77 10 -78 10 -84 43 -11 60 -28 67 -181 72 -163 5 -189 12
-248 63 -58 50 -125 63 -159 31 -12 -11 -62 -36 -110 -56 -49 -19 -100 -45
-113 -57 -28 -26 -63 -89 -63 -114 0 -18 -31 -17 -130 6 -77 18 -108 3 -133
-65 -10 -27 -19 -51 -21 -52 -1 -1 -26 10 -56 25 -47 23 -68 27 -141 27 -100
0 -108 5 -149 84 l-28 56 20 194 20 193 -31 32 c-42 44 -62 97 -72 196 -5 47
-12 102 -15 124 -6 35 -3 41 34 75 51 47 58 83 44 210 -11 102 -31 159 -71
203 -13 15 -22 30 -19 34 3 3 35 12 69 20 61 14 169 74 169 93 0 14 168 97
230 114 30 9 84 18 120 22 36 3 130 21 210 40 80 19 168 38 195 43 78 15 204
13 273 -3z m-1290 -360 c56 -47 99 -198 90 -312 -4 -50 -9 -58 -48 -92 l-43
-37 6 -60 c24 -224 36 -266 89 -321 30 -32 31 -32 20 -95 -6 -35 -13 -103 -16
-153 -8 -132 -14 -155 -41 -155 -43 0 -87 -41 -112 -105 -31 -81 -47 -94 -124
-105 -145 -20 -141 -122 8 -222 71 -47 72 -49 61 -78 -14 -43 -90 -106 -157
-130 -71 -27 -106 -61 -127 -122 -15 -46 -17 -48 -55 -48 -21 0 -59 -5 -83
-12 -34 -9 -53 -9 -84 0 -36 11 -40 16 -45 53 -7 50 -31 79 -67 79 -32 0 -49
-18 -84 -87 -40 -80 -53 -85 -187 -78 -108 7 -116 6 -158 -17 -30 -16 -59 -44
-85 -82 -66 -98 -124 -116 -241 -76 -114 39 -138 24 -209 -139 -61 -139 -60
-138 -150 -136 -72 2 -77 4 -123 43 -26 22 -96 89 -154 149 l-106 108 7 67 c9
79 14 87 84 126 53 30 126 102 126 125 2 72 23 160 46 193 22 33 25 46 20 84
-4 25 -22 187 -42 360 -19 173 -44 352 -54 398 -28 120 -32 113 52 106 70 -5
75 -4 123 26 103 67 910 308 1170 350 222 37 253 55 402 240 139 172 220 215
291 155z m5025 -166 c23 -12 75 -46 116 -75 40 -30 101 -64 135 -76 45 -17 77
-38 123 -83 75 -74 96 -131 87 -235 -6 -57 -1 -88 30 -208 99 -386 222 -718
327 -882 20 -30 40 -69 46 -86 6 -17 23 -158 39 -313 l28 -282 -59 -59 c-38
-38 -76 -66 -105 -76 -121 -45 -162 -68 -213 -124 -67 -74 -173 -251 -188
-315 -6 -27 -13 -56 -15 -62 -2 -7 -19 -13 -38 -13 -30 0 -42 8 -82 55 -63 73
-92 85 -201 85 -140 0 -214 35 -229 109 -3 14 -20 76 -39 136 -18 61 -39 135
-45 165 -7 30 -21 71 -30 90 -23 45 -152 170 -177 170 -10 0 -33 -9 -51 -20
-39 -24 -80 -26 -110 -4 -17 12 -22 25 -22 62 0 38 -7 57 -42 107 -73 105 -96
129 -155 160 -55 29 -58 33 -82 100 -16 48 -25 99 -28 160 -3 58 -11 107 -24
137 -31 76 -28 81 39 74 31 -3 73 -8 93 -12 32 -5 42 -2 75 29 24 21 62 41 99
52 67 19 144 71 252 168 40 36 105 84 145 108 128 73 193 155 205 258 6 52 -2
73 -49 131 -15 20 -44 74 -63 120 -23 56 -45 93 -65 108 -33 26 -60 71 -60 99
0 23 48 56 121 83 68 25 85 42 95 95 16 93 37 104 117 64z m-2468 -13 c66 -8
210 -28 320 -45 187 -28 257 -35 621 -61 179 -13 367 -13 569 0 150 10 224 17
634 56 90 8 167 12 171 7 20 -21 -11 -52 -81 -79 -79 -31 -139 -79 -139 -113
0 -11 24 -49 54 -84 33 -39 68 -96 89 -146 20 -45 50 -98 66 -116 39 -45 47
-91 27 -152 -28 -83 -49 -107 -153 -171 -55 -34 -134 -92 -177 -129 -133 -117
-153 -130 -233 -157 -51 -17 -88 -36 -106 -56 -33 -34 -37 -35 -109 -16 -68
17 -144 7 -264 -35 -117 -41 -196 -81 -243 -124 -36 -33 -43 -35 -105 -35 -61
0 -76 -5 -194 -64 -70 -35 -158 -74 -197 -86 -65 -22 -101 -47 -135 -96 -26
-36 -63 -54 -110 -54 -78 0 -173 20 -217 46 -53 31 -83 30 -113 -1 -13 -14
-29 -25 -36 -25 -12 0 -16 9 -59 125 -14 38 -33 78 -43 88 -38 42 -230 118
-299 119 -47 0 -48 1 -73 118 -14 63 -25 86 -52 116 -19 21 -19 22 10 87 45
99 118 207 140 207 11 0 34 -5 52 -12 31 -10 35 -9 55 14 12 14 35 60 50 102
23 62 25 79 15 91 -7 8 -20 15 -29 15 -59 1 -198 112 -225 181 -20 50 -15 71
35 128 46 52 48 69 13 111 -25 29 -25 32 -10 49 10 10 52 34 94 52 125 53 172
88 186 137 9 27 30 28 201 8z m-1379 -951 c94 -67 123 -76 262 -81 169 -7 172
-8 172 -43 0 -33 20 -58 53 -66 12 -3 72 -9 133 -14 156 -12 164 -19 204 -176
l25 -100 70 -6 c80 -7 228 -65 264 -103 12 -13 37 -62 56 -110 l34 -87 -38
-35 c-56 -50 -67 -82 -51 -150 9 -36 10 -58 3 -65 -5 -5 -38 -14 -72 -20 -103
-19 -118 -51 -85 -189 24 -103 20 -145 -21 -238 -21 -48 -39 -108 -42 -140 -5
-42 -14 -67 -38 -98 -18 -23 -38 -65 -45 -92 -18 -76 -71 -112 -166 -112 -34
0 -51 7 -78 30 -33 29 -36 30 -104 24 l-71 -7 -70 71 c-100 101 -109 105 -281
112 -136 5 -149 8 -213 38 -40 18 -92 54 -126 87 -58 55 -60 56 -129 62 -81 7
-77 5 -121 61 -33 42 -36 44 -77 37 -37 -5 -44 -3 -58 17 -23 32 -20 54 11 82
22 21 28 37 33 88 9 88 -2 121 -52 155 -97 66 -108 128 -57 324 l34 130 -20
37 c-11 20 -34 46 -52 57 -44 27 -42 56 7 108 27 30 42 58 50 93 24 111 26
114 78 114 26 0 71 -7 101 -15 68 -18 85 -10 105 53 24 71 60 99 173 136 28 9
63 28 78 41 35 34 64 31 121 -10z m-1065 -174 c35 -84 55 -95 162 -96 101 -2
176 -26 196 -63 9 -17 4 -28 -28 -67 -58 -70 -58 -79 -1 -139 58 -62 66 -87
45 -146 -24 -69 -45 -175 -45 -234 0 -70 32 -131 90 -171 l45 -32 3 -71 c3
-68 2 -72 -28 -98 -39 -35 -40 -80 -4 -123 22 -27 32 -31 74 -31 45 0 50 -3
70 -35 30 -48 72 -69 129 -62 44 5 47 3 110 -54 35 -33 94 -74 130 -92 62 -31
72 -32 211 -37 171 -6 181 -10 287 -113 l72 -70 72 7 71 7 40 -42 c50 -52 84
-124 69 -143 -6 -7 -28 -18 -49 -24 -21 -7 -49 -23 -61 -36 -20 -22 -23 -33
-19 -80 l5 -55 -71 -17 c-109 -26 -109 -27 -102 -90 19 -167 19 -156 -11 -202
-22 -34 -32 -42 -48 -37 -11 4 -41 9 -68 12 -44 5 -49 3 -81 -30 -71 -76 -111
-236 -100 -401 8 -115 -4 -135 -83 -140 -43 -2 -61 -10 -106 -45 -61 -47 -67
-56 -67 -108 0 -29 8 -44 41 -75 37 -35 40 -43 35 -74 -6 -31 -14 -38 -96 -79
-49 -25 -99 -45 -110 -45 -40 0 -60 19 -60 56 0 31 -4 37 -30 47 -27 10 -30
16 -30 57 -1 74 -28 202 -48 229 -14 19 -33 28 -71 34 -48 8 -54 12 -67 43
-14 33 -13 37 8 67 53 74 13 153 -92 184 -73 21 -158 7 -264 -43 -104 -49
-148 -53 -221 -20 -32 14 -86 47 -122 72 -51 36 -63 50 -58 65 23 70 -81 169
-178 169 -30 0 -36 4 -50 40 -13 34 -24 44 -74 66 -32 15 -75 29 -95 31 -36 5
-38 9 -64 75 -21 57 -42 86 -105 153 -43 46 -82 96 -86 112 -12 44 -7 169 11
268 24 138 21 216 -14 331 -40 130 -38 154 18 174 23 9 54 28 68 42 l26 25
-21 46 c-26 57 -26 54 3 92 21 27 24 44 28 133 2 59 8 106 15 113 9 9 22 7 57
-6 42 -16 48 -16 92 -1 26 9 69 16 95 16 l47 0 22 59 c24 66 49 93 99 110 95
31 201 127 201 180 0 26 -10 36 -79 82 -126 82 -145 144 -50 162 24 5 55 11
68 13 36 8 85 63 106 119 23 62 31 73 58 78 51 10 56 7 78 -42z m3875 -231
c16 -38 23 -75 24 -120 2 -136 44 -288 85 -304 9 -3 25 -6 35 -6 23 0 88 -63
145 -141 38 -52 45 -68 45 -108 0 -49 16 -74 68 -100 26 -14 92 0 112 24 7 8
18 15 24 15 6 0 43 -31 83 -68 62 -60 74 -76 88 -128 109 -392 119 -417 179
-448 29 -15 68 -21 161 -26 133 -7 145 -12 213 -82 32 -34 32 -35 18 -74 -23
-65 -84 -161 -124 -194 -39 -33 -47 -33 -152 -15 -26 5 -61 -3 -140 -30 -183
-65 -262 -85 -363 -95 -106 -10 -179 -36 -196 -68 -15 -28 -14 -77 4 -142 25
-92 21 -180 -12 -243 -7 -15 -45 -50 -82 -77 -38 -28 -72 -57 -75 -66 -9 -22
19 -51 76 -80 l46 -23 7 -77 c11 -117 1 -534 -14 -561 -15 -28 -42 -29 -66 -3
-26 28 -56 25 -136 -16 -81 -40 -104 -39 -166 5 -21 15 -67 41 -103 59 -36 18
-85 43 -109 57 -38 21 -57 25 -131 25 -147 0 -350 46 -350 79 0 6 -9 35 -21
66 -15 40 -29 60 -50 70 -36 19 -38 52 -5 92 61 74 61 114 0 212 -53 85 -66
137 -39 147 15 6 61 -2 137 -22 9 -3 27 5 38 16 24 24 23 31 -16 167 -29 104
-46 136 -86 166 -64 48 -91 57 -137 45 -38 -10 -44 -9 -68 13 -14 13 -34 42
-44 63 -17 39 -17 41 3 68 13 18 18 37 14 52 -3 12 -69 84 -147 159 -161 156
-154 153 -287 116 -41 -11 -84 -18 -96 -15 -11 3 -51 25 -89 50 -37 24 -85 47
-107 51 -22 4 -51 16 -65 27 -43 34 -29 111 35 183 10 12 20 43 23 77 3 32 21
95 40 140 51 121 51 119 26 248 -26 137 -24 144 49 155 50 7 122 47 122 68 0
6 -7 33 -15 60 -16 54 -13 71 23 110 17 18 36 27 57 27 19 0 44 11 68 31 l38
31 69 -31 c57 -27 85 -33 170 -38 l102 -6 61 65 c57 59 70 67 152 96 50 17
126 51 170 77 102 58 157 75 207 62 36 -9 41 -7 105 41 106 78 275 155 326
149 12 -1 27 -21 43 -57z m-4692 -465 c0 -27 -6 -74 -12 -104 -7 -29 -12 -82
-12 -117 0 -34 -5 -66 -11 -70 -6 -3 -19 -20 -29 -37 -18 -30 -18 -31 1 -68
30 -60 26 -75 -28 -93 -94 -32 -103 -68 -53 -226 34 -106 37 -165 16 -285 -22
-128 -29 -211 -21 -272 6 -53 12 -62 70 -122 65 -68 135 -172 135 -202 0 -35
39 -67 98 -80 80 -17 110 -35 129 -74 16 -35 16 -36 -13 -77 -16 -24 -42 -49
-57 -58 -27 -15 -28 -14 -85 47 -32 34 -71 65 -86 69 -71 17 -179 -55 -235
-157 -49 -89 -146 -223 -175 -242 -22 -15 -25 -14 -46 8 -42 45 -76 48 -175
20 -111 -32 -270 -91 -312 -116 l-33 -18 0 29 c0 39 -38 81 -127 141 -79 54
-82 61 -47 131 23 44 17 65 -47 185 -71 134 -72 118 23 303 56 107 59 118 54
165 -8 72 -61 235 -91 279 -31 45 -48 119 -40 166 3 19 20 81 36 138 30 98 32
123 14 166 -8 17 -4 18 52 11 58 -6 61 -6 80 22 11 15 37 66 57 113 44 101 82
160 106 160 9 0 43 -9 75 -20 122 -42 202 -17 268 83 26 38 53 65 80 78 42 22
80 22 218 3 41 -6 49 -3 80 24 19 17 48 58 64 91 26 53 33 61 55 59 23 -3 25
-7 24 -53z m2806 -1050 c13 -14 34 -25 47 -25 26 0 79 -25 165 -77 63 -39 81
-40 193 -7 96 28 114 18 283 -158 l94 -97 -22 -39 -22 -40 23 -47 c13 -27 36
-61 51 -77 27 -29 30 -29 90 -23 63 7 64 7 106 -32 33 -29 50 -56 73 -118 16
-44 32 -101 36 -127 6 -46 5 -48 -19 -48 -14 0 -42 7 -61 15 -50 21 -73 19
-97 -7 -31 -34 -24 -72 30 -173 28 -51 50 -103 50 -116 0 -13 -16 -44 -35 -68
-24 -30 -35 -54 -35 -76 0 -27 -14 -47 -82 -119 -88 -93 -113 -106 -203 -106
-71 0 -78 -8 -83 -86 -4 -57 -1 -74 18 -109 16 -29 21 -50 16 -68 -8 -34 -20
-34 -67 -2 -31 22 -40 24 -62 14 -30 -14 -47 -48 -47 -95 0 -21 -9 -47 -20
-62 -12 -15 -29 -38 -39 -52 -21 -27 -32 -24 -101 26 -29 21 -42 25 -77 20
-43 -6 -43 -6 -67 42 -26 51 -85 110 -135 136 -27 14 -31 14 -45 0 -9 -8 -16
-19 -16 -24 0 -5 -9 -14 -20 -20 -17 -9 -32 -5 -83 20 -34 18 -76 40 -93 51
-53 32 -119 39 -212 23 -79 -14 -85 -13 -110 5 -57 39 -114 61 -253 97 l-144
36 3 49 c4 46 1 51 -37 89 -54 54 -54 81 1 137 35 36 49 43 80 43 56 0 104 24
123 59 12 25 15 58 13 164 -3 116 0 140 20 198 12 36 36 88 53 114 33 53 17
50 148 29 38 -6 39 -5 66 40 40 68 45 104 27 179 -8 35 -13 71 -10 79 3 8 32
20 64 27 33 7 72 20 88 28 28 14 28 16 21 77 l-6 63 58 23 c32 13 64 28 71 33
17 13 15 45 -8 94 l-19 43 42 10 c23 6 65 21 92 35 62 30 57 30 85 0z m3278
-61 c3 -18 12 -22 68 -27 115 -11 280 -101 322 -176 26 -46 28 -97 6 -181 -13
-52 -14 -73 -4 -133 l12 -71 -27 -23 c-37 -32 -45 -70 -35 -167 11 -103 27
-144 85 -208 64 -72 73 -109 45 -192 -25 -77 -26 -76 61 -172 78 -87 134 -167
177 -256 55 -112 93 -163 152 -199 28 -17 50 -34 50 -39 0 -4 -14 -13 -30 -20
-63 -26 -79 -91 -35 -138 14 -15 35 -52 46 -82 30 -78 23 -222 -13 -301 -29
-63 -38 -68 -163 -94 l-80 -16 -86 -91 -87 -91 -41 33 c-23 19 -41 36 -41 40
0 4 -19 28 -43 54 -40 42 -47 46 -91 46 -66 0 -103 -19 -181 -91 l-68 -64
-154 -3 c-153 -3 -154 -3 -217 26 -58 27 -146 94 -146 111 0 4 18 18 41 30 22
13 45 33 51 46 13 29 2 129 -17 145 -7 6 -64 22 -126 36 -122 27 -186 51 -207
76 -11 14 -8 22 18 51 30 34 30 37 17 70 -16 37 -57 74 -94 83 -13 4 -58 -5
-104 -19 -56 -18 -82 -22 -85 -14 -16 46 -44 178 -44 211 0 23 -9 60 -20 81
-12 23 -18 49 -15 60 4 11 9 160 11 330 l6 311 -27 26 c-15 15 -43 32 -63 39
-21 6 -40 14 -45 16 -15 9 14 42 62 72 62 37 95 86 116 170 16 61 16 67 -5
158 -38 158 -24 173 174 194 78 8 143 24 283 71 l182 60 56 -18 c55 -17 58
-17 92 1 48 26 104 93 143 168 17 34 39 70 48 80 22 24 66 19 70 -9z m-6010
-716 c101 -122 122 -125 203 -38 68 74 99 79 175 28 47 -32 49 -35 54 -90 l5
-56 77 -56 c155 -113 204 -120 364 -50 160 69 252 70 309 3 31 -37 31 -62 3
-115 l-21 -41 24 -49 c24 -48 25 -49 75 -52 46 -3 53 -6 63 -30 39 -97 53
-232 27 -267 -9 -12 -31 -21 -62 -24 -59 -7 -76 -29 -128 -163 -20 -50 -62
-129 -94 -177 -88 -128 -118 -186 -155 -299 -30 -93 -37 -104 -68 -120 -27
-13 -42 -34 -72 -95 l-37 -78 -75 -34 c-67 -31 -75 -37 -75 -62 0 -16 14 -48
31 -73 73 -109 89 -172 47 -184 -13 -3 -32 -6 -42 -6 -38 0 -103 -41 -134 -84
-17 -24 -45 -49 -62 -56 -27 -11 -32 -10 -49 11 -11 13 -43 65 -72 114 -42 72
-77 114 -172 206 -99 96 -118 120 -113 137 10 29 90 99 149 128 26 13 47 29
47 35 0 22 -31 67 -69 102 -50 45 -83 47 -196 12 -87 -27 -125 -31 -125 -14 0
6 -7 27 -17 46 -15 33 -19 35 -55 30 -31 -4 -40 -2 -44 11 -3 10 -13 34 -21
54 l-16 38 -61 -2 c-51 -2 -73 3 -136 32 -58 27 -88 35 -133 35 l-58 0 -30 60
c-18 37 -32 85 -35 123 -6 52 -11 66 -33 81 -34 23 -104 49 -164 60 -46 8 -49
7 -58 -16 -5 -13 -9 -44 -9 -67 0 -24 -3 -58 -6 -75 -6 -28 -10 -31 -43 -30
-87 2 -86 -1 -20 144 108 236 113 253 114 396 0 146 3 153 88 189 73 32 303
100 337 100 15 0 33 -7 41 -16 23 -28 67 -46 88 -34 28 14 77 78 166 212 78
120 116 161 170 184 49 21 74 17 103 -18z m3746 -655 c7 -16 20 -48 27 -72 11
-37 20 -47 54 -62 71 -32 224 -60 330 -62 l100 -2 145 -85 c170 -99 192 -103
282 -52 65 38 90 40 110 10 10 -14 29 -23 59 -27 l44 -6 7 -62 c4 -34 16 -97
28 -140 37 -129 17 -215 -71 -309 -33 -36 -68 -84 -79 -108 -21 -49 -45 -70
-180 -151 -52 -32 -116 -77 -142 -100 -40 -36 -61 -46 -135 -64 -109 -26 -197
-67 -283 -131 -83 -61 -138 -86 -211 -95 -86 -11 -116 8 -161 98 -20 39 -46
109 -58 155 -36 135 -61 152 -249 172 -99 10 -131 26 -131 64 0 12 9 32 20 46
37 48 16 97 -59 135 -25 12 -57 32 -70 42 l-24 20 41 45 c48 52 50 65 20 103
-17 22 -19 31 -10 44 40 55 52 80 52 112 0 20 8 46 18 58 l17 22 37 -26 c43
-29 64 -31 90 -8 24 21 23 74 -2 123 -12 24 -20 59 -20 90 0 45 3 52 26 60 14
6 52 10 86 10 l60 0 93 90 c51 50 100 90 109 90 8 0 22 -12 30 -27z m-2310
-228 c1 -33 5 -40 26 -46 55 -15 90 -8 167 32 l78 41 50 -15 c27 -8 96 -25
153 -38 58 -13 133 -38 175 -58 l72 -36 -2 -46 c-3 -49 -18 -90 -83 -223 -39
-80 -60 -167 -60 -254 0 -36 6 -49 40 -86 22 -24 40 -50 40 -57 0 -8 -31 -29
-70 -47 -99 -46 -104 -56 -102 -216 1 -89 -2 -139 -11 -155 -8 -15 -33 -31
-74 -46 -75 -27 -164 -92 -197 -143 -13 -20 -32 -59 -41 -87 -23 -64 -64 -105
-108 -105 -28 0 -46 13 -123 93 -85 85 -124 132 -124 148 0 3 25 14 56 25 31
10 60 27 66 38 9 17 4 89 -9 122 -7 18 -44 18 -113 -1 -30 -8 -96 -18 -146
-22 -90 -6 -92 -5 -105 18 -7 13 -39 52 -71 85 -57 60 -62 63 -159 89 -55 15
-97 30 -94 34 4 3 25 12 48 21 39 14 46 22 87 105 33 67 51 91 66 93 33 5 49
30 69 107 20 82 69 177 165 325 38 58 83 141 100 185 50 131 49 129 109 137
29 3 58 11 64 17 7 7 23 11 36 9 22 -3 25 -8 25 -43z m1010 -129 c18 -7 56
-30 84 -51 30 -21 68 -39 91 -42 35 -5 41 -2 62 26 12 17 28 31 34 31 26 0 95
-74 126 -135 36 -70 30 -67 102 -49 17 4 37 -4 70 -30 28 -22 58 -36 75 -36
30 0 52 -16 52 -37 0 -7 -13 -27 -28 -45 -16 -18 -32 -45 -35 -60 -6 -24 -1
-30 65 -70 87 -53 97 -66 79 -110 -28 -68 -26 -87 10 -124 27 -28 31 -38 23
-51 -29 -47 -81 -63 -248 -79 -66 -6 -72 -8 -121 -55 -69 -65 -106 -134 -112
-212 -6 -62 -6 -62 -92 -152 -90 -96 -131 -162 -131 -213 0 -31 21 -61 139
-200 46 -55 86 -82 120 -82 29 0 34 -15 20 -55 -12 -33 -11 -38 19 -80 l32
-46 -42 -50 c-43 -51 -83 -79 -113 -79 -25 0 -62 -47 -80 -101 -9 -27 -25 -54
-35 -59 -25 -13 -160 -25 -161 -14 0 5 -2 31 -4 57 -3 59 -26 87 -70 87 l-32
0 -5 83 c-6 110 -22 138 -90 160 -90 28 -130 79 -147 187 -6 34 -17 71 -26 80
-21 24 -103 66 -259 135 -124 55 -131 57 -178 47 -52 -10 -56 -7 -33 24 8 12
23 46 35 76 31 85 89 132 225 187 84 33 82 29 84 217 1 151 -2 145 109 204 36
19 67 40 69 46 2 6 -17 37 -42 69 -40 52 -45 64 -45 111 0 66 26 148 100 323
33 77 60 144 60 150 0 6 10 13 23 15 12 3 31 7 42 9 46 10 148 6 179 -7z
m2753 -306 c18 -11 35 -31 39 -45 6 -24 1 -33 -41 -91 -28 -39 53 -85 207
-118 154 -34 145 -29 150 -89 5 -66 3 -73 -32 -87 -47 -19 -65 -46 -54 -77 12
-36 94 -97 172 -128 56 -23 76 -25 208 -25 90 0 154 4 167 12 12 6 49 36 82
66 65 60 107 82 157 82 27 0 43 -12 110 -82 42 -46 78 -86 78 -90 0 -6 -54
-75 -168 -211 -115 -138 -542 -804 -542 -846 0 -7 11 -26 25 -43 40 -47 57
-120 64 -268 l6 -136 37 -44 c20 -25 50 -54 67 -64 24 -17 30 -29 36 -74 4
-29 4 -56 2 -59 -3 -3 -23 7 -44 21 -27 19 -51 26 -85 26 -29 0 -84 14 -145
36 -54 19 -160 58 -236 85 -225 80 -235 85 -249 130 -14 49 -69 114 -117 138
-20 10 -60 24 -89 30 -29 6 -80 25 -114 42 -64 32 -58 32 -194 14 l-51 -7 -12
63 c-7 35 -23 84 -36 109 -15 30 -24 70 -27 120 -4 56 -15 97 -42 164 -21 49
-40 115 -44 150 -7 56 -10 63 -44 85 l-38 24 0 181 c0 205 13 339 37 376 22
33 43 49 202 155 124 83 138 95 169 150 18 33 55 83 82 110 46 47 80 113 80
155 0 11 12 22 28 28 164 61 154 60 199 32z m-1745 -476 l87 -16 36 -111 c43
-131 99 -242 132 -264 33 -22 100 -27 167 -13 43 9 82 28 151 75 50 35 111 73
133 84 42 21 220 76 226 70 2 -2 0 -44 -5 -94 -11 -129 -11 -443 1 -465 5 -10
23 -22 38 -28 26 -9 30 -15 35 -68 3 -33 24 -107 46 -166 30 -79 41 -121 41
-163 0 -40 7 -70 25 -105 14 -28 28 -70 31 -94 l7 -45 -55 6 -55 5 -127 -96
c-69 -53 -135 -96 -146 -96 -10 0 -47 20 -82 45 -130 92 -144 96 -239 59 -45
-17 -48 -17 -87 0 -61 28 -120 18 -178 -29 -82 -68 -155 -149 -185 -208 l-29
-57 -48 24 c-77 39 -87 40 -116 11 -28 -28 -73 -33 -82 -10 -4 9 4 39 16 68
28 62 30 123 6 159 -18 28 -81 58 -120 58 -32 0 -71 47 -114 140 -19 41 -44
85 -54 96 -13 14 -16 24 -9 29 20 11 12 44 -19 79 -30 33 -30 35 -18 81 12 43
11 48 -7 61 -10 8 -29 14 -42 14 -46 0 -233 206 -233 256 0 44 41 107 130 199
l88 90 6 64 c7 63 41 146 75 185 29 33 72 48 180 63 126 17 204 48 229 92 20
37 38 38 164 15z"/>
</g>
</svg>
